<svg width="13" height="11" viewBox="0 0 13 11" fill="none" xmlns="http://www.w3.org/2000/svg">
<path d="M8.5 1H1V7.5H8.5V1Z" stroke="#0F42FA" stroke-linecap="round" stroke-linejoin="round"/>
<path d="M8.5 3.5H10.5L12 5V7.5H8.5V3.5Z" stroke="#0F42FA" stroke-linecap="round" stroke-linejoin="round"/>
<path d="M3.25 10C3.94036 10 4.5 9.44036 4.5 8.75C4.5 8.05964 3.94036 7.5 3.25 7.5C2.55964 7.5 2 8.05964 2 8.75C2 9.44036 2.55964 10 3.25 10Z" stroke="#0F42FA" stroke-linecap="round" stroke-linejoin="round"/>
<path d="M9.75 10C10.4404 10 11 9.44036 11 8.75C11 8.05964 10.4404 7.5 9.75 7.5C9.05964 7.5 8.5 8.05964 8.5 8.75C8.5 9.44036 9.05964 10 9.75 10Z" stroke="#0F42FA" stroke-linecap="round" stroke-linejoin="round"/>
</svg>
