<svg width="21" height="14" viewBox="0 0 21 14" fill="none" xmlns="http://www.w3.org/2000/svg">
<path d="M21 14H16.1538V10.8889C16.1538 10.4763 16.324 10.0807 16.627 9.78895C16.9299 9.49722 17.3408 9.33333 17.7692 9.33333H19.3846V7.77778H16.1538V6.22222H19.3846C19.813 6.22222 20.2239 6.38611 20.5269 6.67783C20.8298 6.96956 21 7.36522 21 7.77778V9.33333C21 9.74589 20.8298 10.1416 20.5269 10.4333C20.2239 10.725 19.813 10.8889 19.3846 10.8889H17.7692V12.4444H21V14ZM12.9231 10.8889H9.69231C9.26388 10.8889 8.853 10.725 8.55006 10.4333C8.24712 10.1416 8.07692 9.74589 8.07692 9.33333V1.55556C8.07692 1.143 8.24712 0.747335 8.55006 0.455612C8.853 0.163889 9.26388 0 9.69231 0H12.9231C13.3515 0 13.7624 0.163889 14.0653 0.455612C14.3683 0.747335 14.5385 1.143 14.5385 1.55556V9.33333C14.5385 9.74589 14.3683 10.1416 14.0653 10.4333C13.7624 10.725 13.3515 10.8889 12.9231 10.8889ZM9.69231 1.55556V9.33333H12.9231V1.55556H9.69231ZM6.46154 10.8889H1.61538C1.18696 10.8889 0.776078 10.725 0.473135 10.4333C0.170192 10.1416 0 9.74589 0 9.33333V1.55556C0 1.143 0.170192 0.747335 0.473135 0.455612C0.776078 0.163889 1.18696 0 1.61538 0H6.46154V1.55556H1.61538V9.33333H6.46154V10.8889Z" fill="white"/>
</svg>
