<svg width="132" height="29" viewBox="0 0 132 29" fill="none" xmlns="http://www.w3.org/2000/svg">
<rect width="132" height="29" fill="#FFDF01"/>
<path d="M3.99224 16.9068C4.20216 17.6741 4.53124 18.3827 4.97949 19.0317C5.41829 19.6706 5.95108 20.2395 6.55982 20.7193C7.16574 21.1959 7.84316 21.5663 8.59482 21.8312C9.35076 22.0969 10.1466 22.2311 10.9479 22.2281C12.1854 22.2281 13.2652 21.9687 14.1883 21.4535C15.1105 20.9374 15.8493 20.3498 16.4012 19.6871H20.8681C20.4421 20.5941 19.89 21.4363 19.2282 22.1887C18.557 22.9563 17.7863 23.6308 16.9365 24.1943C16.069 24.7689 15.1238 25.2165 14.1297 25.5235C13.1158 25.8416 12.0552 26.0002 10.9488 26.0002C9.44732 26.0002 8.02924 25.7087 6.69916 25.1266C5.40046 24.5666 4.22019 23.7646 3.22132 22.7634C2.2247 21.7571 1.42725 20.5716 0.87099 19.2691C0.288696 17.9216 -0.00782547 16.468 0.000156985 15.0002C0.000156985 13.4913 0.288907 12.0687 0.870074 10.7313C1.42608 9.42815 2.22389 8.24216 3.22132 7.236C4.22112 6.23614 5.40118 5.43461 6.69916 4.87375C8.03929 4.28938 9.48685 3.99182 10.9488 4.00017C12.4503 4.00017 13.8666 4.29167 15.1976 4.87375C16.4961 5.43399 17.6763 6.23594 18.6754 7.23692C19.6727 8.24304 20.4708 9.42864 21.0276 10.7313C21.6069 12.0687 21.8975 13.4904 21.8975 15.0002C21.8975 15.3448 21.8837 15.6748 21.8572 15.992C21.8297 16.3101 21.7912 16.6153 21.738 16.905H3.99132L3.99224 16.9068ZM17.9027 13.1338C17.6947 12.3727 17.368 11.6491 16.9347 10.9898C16.5072 10.336 15.973 9.75874 15.3543 9.282C14.7381 8.8076 14.0514 8.43244 13.3193 8.17009C12.5578 7.9016 11.7554 7.7676 10.9479 7.77409C10.1452 7.77131 9.34854 7.91257 8.59574 8.19117C7.8576 8.46251 7.16472 8.84388 6.54057 9.32234C5.92453 9.79473 5.39033 10.3652 4.95932 11.0108C4.52342 11.6619 4.19647 12.3795 3.99132 13.1357H17.9027V13.1338ZM22.5657 6.62184L25.2525 4.00109L33.2367 12.3006L41.219 4.00109L43.9048 6.62184L35.8464 15.0002L43.9085 23.3785L41.2208 26.0002L33.2367 17.7007L25.2543 26.0002L22.5676 23.3794L30.6278 15.0002L22.5657 6.62184ZM46.2414 14.4438C46.2414 13.0138 46.5109 11.6635 47.0517 10.3921C47.5745 9.14711 48.3327 8.01478 49.2847 7.05725C50.2365 6.10249 51.3639 5.34081 52.6049 4.81417C53.8789 4.26992 55.251 3.99287 56.6364 4.00017C58.06 4.00017 59.402 4.27242 60.6679 4.81417C61.9089 5.34083 63.0363 6.1025 63.9881 7.05725C64.9395 8.01547 65.6973 9.14803 66.2202 10.393C66.7622 11.6743 67.0379 13.0525 67.0305 14.4438V25.3631H62.9202V14.2439C62.9253 13.3983 62.7569 12.5606 62.4252 11.7827C62.109 11.0351 61.6532 10.3548 61.0822 9.77792C60.5093 9.20467 59.8319 8.74635 59.0867 8.42767C58.313 8.09465 57.4787 7.92549 56.6364 7.93084C55.7665 7.93084 54.9497 8.09767 54.1862 8.42767C53.4217 8.75859 52.7562 9.20867 52.1906 9.77792C51.6189 10.3544 51.1628 11.0348 50.8467 11.7827C50.5149 12.5608 50.3464 13.3989 50.3517 14.2448V25.3631H46.2414V14.4438ZM73.8661 16.9068C74.0769 17.6741 74.4051 18.3827 74.8533 19.0317C75.2921 19.6706 75.8249 20.2395 76.4337 20.7193C77.0405 21.1959 77.7179 21.5663 78.4696 21.8312C79.2252 22.0968 80.0208 22.2311 80.8217 22.2281C82.0592 22.2281 83.14 21.9687 84.0631 21.4535C84.9843 20.9374 85.7232 20.3498 86.2759 19.6871H90.7428C90.3167 20.5942 89.7643 21.4364 89.102 22.1887C88.4309 22.9563 87.6602 23.6309 86.8103 24.1943C85.9431 24.7688 84.9983 25.2164 84.0044 25.5235C82.9897 25.8416 81.93 26.0002 80.8236 26.0002C79.3212 26.0002 77.904 25.7087 76.5739 25.1266C75.2752 24.5666 74.0949 23.7646 73.0961 22.7634C72.0988 21.7573 71.3007 20.5717 70.7439 19.2691C70.1623 17.9215 69.8664 16.4679 69.8749 15.0002C69.8749 13.4913 70.1637 12.0687 70.7439 10.7313C71.3003 9.4284 72.0984 8.24273 73.0961 7.23692C74.0958 6.23673 75.2759 5.43489 76.5739 4.87375C77.9138 4.28951 79.361 3.99194 80.8227 4.00017C82.3242 4.00017 83.7404 4.29167 85.0723 4.87375C86.3709 5.43401 87.5511 6.23596 88.5502 7.23692C89.5471 8.24314 90.3448 9.42873 90.9014 10.7313C91.4807 12.0687 91.7713 13.4904 91.7713 15.0002C91.7713 15.3448 91.7585 15.6748 91.731 15.992C91.7044 16.3101 91.6659 16.6153 91.6118 16.905H73.867L73.8661 16.9068ZM87.7774 13.1338C87.5694 12.3727 87.2428 11.6491 86.8094 10.9898C86.382 10.336 85.8478 9.7587 85.2291 9.282C84.6125 8.80756 83.9256 8.43239 83.1932 8.17009C82.4316 7.9016 81.6292 7.7676 80.8217 7.77409C80.019 7.77131 79.2224 7.91257 78.4696 8.19117C77.7314 8.46249 77.0385 8.84385 76.4144 9.32234C75.7987 9.79482 75.2648 10.3652 74.8341 11.0108C74.3982 11.6618 74.0712 12.3795 73.8661 13.1357H87.7774V13.1338ZM103.308 25.9993C100.91 25.9993 98.8361 25.4364 97.0843 24.3117C95.3317 23.186 94.1006 21.6442 93.3892 19.6853H97.7755C98.3292 20.5323 99.1001 21.1886 100.087 21.6515C101.083 22.1169 102.17 22.3543 103.269 22.3463C104.639 22.3463 105.699 22.1025 106.45 21.6112C107.201 21.1217 107.576 20.4534 107.576 19.6064C107.576 18.918 107.305 18.39 106.766 18.0188C106.225 17.6475 105.322 17.3432 104.058 17.1058L100.976 16.5099C98.551 16.0598 96.7855 15.3458 95.6791 14.3649C94.5727 13.3868 94.0181 12.0623 94.0181 10.3939C94.0181 9.46809 94.2225 8.61375 94.6304 7.83275C95.045 7.0436 95.6246 6.35298 96.3299 5.80784C97.0541 5.2395 97.9167 4.79492 98.9186 4.47775C99.9196 4.16059 101.026 4.00109 102.239 4.00109C104.477 4.00109 106.415 4.53734 108.049 5.60984C109.682 6.68234 110.828 8.17192 111.488 10.0768H107.101C106.652 9.3095 106.001 8.71367 105.145 8.29017C104.287 7.86667 103.331 7.654 102.279 7.654C101.014 7.654 100.032 7.88592 99.3338 8.34884C98.6353 8.81267 98.287 9.46717 98.287 10.3142C98.287 10.9228 98.5565 11.4123 99.0973 11.7836C99.6363 12.1539 100.525 12.4583 101.765 12.6957L104.848 13.2915C107.245 13.7416 109.011 14.4768 110.144 15.4961C111.276 16.5145 111.844 17.8583 111.844 19.5258C111.844 20.4791 111.632 21.3463 111.211 22.1263C110.775 22.9244 110.176 23.6216 109.452 24.1723C108.701 24.7544 107.798 25.2045 106.744 25.5217C105.694 25.8407 104.548 25.9983 103.308 25.9983V25.9993ZM123.465 25.9993C121.067 25.9993 118.992 25.4364 117.24 24.3117C115.487 23.186 114.257 21.6442 113.545 19.6853H117.931C118.486 20.5323 119.256 21.1886 120.243 21.6515C121.239 22.1168 122.326 22.3542 123.425 22.3463C124.795 22.3463 125.855 22.1025 126.606 21.6112C127.356 21.1217 127.732 20.4534 127.732 19.6064C127.732 18.918 127.461 18.39 126.922 18.0188C126.381 17.6475 125.479 17.3432 124.214 17.1058L121.131 16.5099C118.707 16.0598 116.941 15.3458 115.835 14.3649C114.728 13.3868 114.175 12.0623 114.175 10.3939C114.175 9.46809 114.378 8.61375 114.787 7.83275C115.201 7.04365 115.781 6.35301 116.486 5.80784C117.21 5.2395 118.072 4.79492 119.074 4.47775C120.075 4.16059 121.183 4.00109 122.394 4.00109C124.633 4.00109 126.571 4.53734 128.204 5.60984C129.839 6.68234 130.984 8.17192 131.644 10.0768H127.257C126.809 9.3095 126.156 8.71367 125.3 8.29017C124.444 7.86667 123.488 7.654 122.435 7.654C121.17 7.654 120.189 7.88592 119.49 8.34884C118.792 8.81267 118.443 9.46717 118.443 10.3142C118.443 10.9228 118.712 11.4123 119.253 11.7836C119.793 12.1539 120.682 12.4583 121.92 12.6957L125.004 13.2915C127.4 13.7416 129.167 14.4768 130.3 15.4961C131.432 16.5145 131.999 17.8583 131.999 19.5258C131.999 20.4791 131.788 21.3463 131.367 22.1263C130.931 22.9244 130.331 23.6216 129.608 24.1723C128.857 24.7544 127.954 25.2045 126.9 25.5217C125.849 25.8407 124.703 25.9983 123.465 25.9983V25.9993Z" fill="black"/>
</svg>
