<svg width="14" height="14" viewBox="0 0 14 14" fill="none" xmlns="http://www.w3.org/2000/svg">
<path d="M0.18125 8.58438C0.0625 8.05313 0 7.51562 0 6.97812C0 3.125 3.11875 0 6.97188 0C7.49063 0 8.0125 0.0625 8.5125 0.171875C4.65625 1.64062 1.62187 4.71875 0.18125 8.58438ZM12.4594 2.67188C12.0312 2.125 11.5312 1.65 10.9656 1.25625C6.29062 2.64062 2.64375 6.32188 1.2875 11.0063C1.67813 11.5719 2.1625 12.1188 2.7 12.5375C4.04688 7.80938 7.7375 4.04688 12.4594 2.67188ZM12.9531 10.5688C13.4281 9.78438 13.7469 8.89062 13.875 7.98125C11.3938 9.32187 9.34375 11.4375 8.0125 13.9281C8.95 13.7906 9.85312 13.45 10.6562 12.95C11.75 13.3594 12.8719 13.7094 14 14C13.7094 12.8594 13.3625 11.6719 12.9531 10.5688ZM13.8813 6.02187C13.8 5.4125 13.6344 4.8125 13.3875 4.24687C9.07812 5.67812 5.6875 9.14062 4.28438 13.4688C4.85 13.7063 5.44062 13.8594 6.05312 13.9438C7.5 10.3781 10.3281 7.48125 13.8813 6.02187Z" fill="white"/>
</svg>
