<svg width="79" height="25" viewBox="0 0 79 25" fill="none" xmlns="http://www.w3.org/2000/svg">
<path d="M17.6755 0H0V0.9324C2.0155 1.0472 2.64625 1.3188 2.64625 3.8864V20.5744C2.64625 23.1168 2.01792 23.4108 0 23.5284V24.416H9.95425V23.5284C7.48442 23.4136 6.87783 23.1448 6.87783 20.5744V12.5804H10.4666C13.1878 12.5804 14.4444 13.2804 14.877 16.1448H15.7011V7.56H14.877C14.4638 10.1024 13.7581 10.8304 10.4642 10.8304H6.87783V3.0632C6.87783 2.0636 7.09533 1.8368 8.05475 1.8368H11.2496C15.3845 1.8368 16.1868 2.6516 16.9336 5.4012H17.7963L17.6755 0ZM31.1388 21.8624L27.0232 14.9156L29.2368 11.7152C30.6868 9.6264 31.5472 8.6268 32.8812 8.4896V7.5572H27.1585V8.4924C28.217 8.4924 28.6689 8.7892 28.6689 9.5368C28.6689 10.192 28.0019 11.0348 27.492 11.7376L26.2378 13.4624L24.7104 10.8724C24.3793 10.304 24.0265 9.898 24.0265 9.3268C24.0265 8.7836 24.592 8.512 25.4765 8.512V7.5796H17.8157V8.512C18.9539 8.8088 19.4034 9.6264 19.9303 10.5308L23.693 16.9568L20.5199 21.2716C19.4203 22.7696 18.8742 23.3128 17.5426 23.5424V24.43H23.1855V23.52C22.4001 23.52 21.6195 23.296 21.6195 22.792C21.6195 22.2488 22.2068 21.5432 23.1299 20.2048L24.4422 18.3456L26.0493 21.0644C26.6148 22.0388 26.8927 22.4952 26.8927 22.834C26.8927 23.2176 26.3441 23.4892 25.2856 23.5144V24.402H33.2243V23.5144C32.5283 23.52 32.0015 23.2932 31.1388 21.8624ZM44.4618 0H34.4689V0.9324C36.5835 1.0472 37.1152 1.316 37.1152 3.8864V20.5744C37.1152 23.1168 36.5859 23.4108 34.4689 23.5284V24.416H44.1694V23.5284C41.9751 23.4136 41.3468 23.1448 41.3468 20.5744V14.2156H44.109C49.5344 14.2156 52.3958 11.788 52.3958 7.1092C52.4006 3.0884 50.2232 0 44.4618 0ZM41.3468 12.8016V2.8168C41.3468 2.002 41.6585 1.4532 43.0892 1.4532C45.8732 1.4532 48.0458 3.3124 48.0458 6.5632C48.0506 10.4216 46.284 12.8016 41.3468 12.8016ZM62.3959 7.1288C60.6535 7.1288 59.537 8.7864 58.9449 10.2172H58.8869V7.6496C58.8869 7.3528 58.8869 7.1064 58.7323 7.1064C58.4205 7.1064 55.0082 8.2208 53.4204 8.5372V9.4696C54.8318 9.4696 55.1822 9.8308 55.1822 11.5808V21.3892C55.1822 22.8872 54.6529 23.2484 53.4204 23.478V24.3656H61.0813V23.5228C59.6699 23.478 58.8869 23.0468 58.8869 21.2968V11.872C59.3171 11.0544 59.9043 10.4412 60.4916 10.4412C60.8444 10.4412 61.1199 10.6652 61.2963 10.8024C61.6081 11.0544 61.9247 11.5304 62.8237 11.5304C63.7662 11.5304 64.4694 10.668 64.4694 9.5564C64.4718 8.3552 63.8048 7.1288 62.3959 7.1288ZM71.1926 7.1288C67.0359 7.1288 64.177 10.8752 64.177 16.0048C64.177 21.1344 67.0359 24.8808 71.1926 24.8808C75.3493 24.8808 78.2082 21.1344 78.2082 16.0048C78.2082 10.85 75.3468 7.1288 71.1926 7.1288ZM71.1926 23.4528C68.9983 23.4528 68.0968 21.2268 68.0968 16.0076C68.0968 10.7884 68.9983 8.5624 71.1926 8.5624C73.3869 8.5624 74.2883 10.7884 74.2883 16.0076C74.2883 21.2044 73.4063 23.4528 71.1926 23.4528Z" fill="white"/>
</svg>
