<svg width="19" height="17" viewBox="0 0 19 17" fill="none" xmlns="http://www.w3.org/2000/svg">
<path fill-rule="evenodd" clip-rule="evenodd" d="M16.4091 1.7H2.59091C2.11393 1.7 1.72727 2.08056 1.72727 2.55V14.45C1.72727 14.9195 2.11394 15.3 2.59091 15.3H16.4091C16.8861 15.3 17.2727 14.9195 17.2727 14.45V2.55C17.2727 2.08055 16.8861 1.7 16.4091 1.7ZM2.59091 0C1.15999 0 0 1.14168 0 2.55V14.45C0 15.8584 1.15999 17 2.59091 17H16.4091C17.8401 17 19 15.8584 19 14.45V2.55C19 1.14168 17.8401 0 16.4091 0H2.59091ZM4.31818 4.25H6.04545V5.95H4.31818V4.25ZM8.63636 4.25C8.15938 4.25 7.77273 4.63056 7.77273 5.1C7.77273 5.56944 8.15938 5.95 8.63636 5.95H13.8182C14.2952 5.95 14.6818 5.56944 14.6818 5.1C14.6818 4.63056 14.2952 4.25 13.8182 4.25H8.63636ZM6.04545 7.65H4.31818V9.35H6.04545V7.65ZM7.77273 8.5C7.77273 8.03055 8.15938 7.65 8.63636 7.65H13.8182C14.2952 7.65 14.6818 8.03055 14.6818 8.5C14.6818 8.96945 14.2952 9.35 13.8182 9.35H8.63636C8.15938 9.35 7.77273 8.96945 7.77273 8.5ZM6.04545 11.05H4.31818V12.75H6.04545V11.05ZM7.77273 11.9C7.77273 11.4305 8.15938 11.05 8.63636 11.05H13.8182C14.2952 11.05 14.6818 11.4305 14.6818 11.9C14.6818 12.3695 14.2952 12.75 13.8182 12.75H8.63636C8.15938 12.75 7.77273 12.3695 7.77273 11.9Z" fill="white"/>
</svg>
