<svg width="17" height="17" viewBox="0 0 17 17" fill="none" xmlns="http://www.w3.org/2000/svg">
<path d="M9.72917 15.875C8.98542 15.875 8.35689 15.6181 7.84358 15.1043C7.33028 14.5906 7.07339 13.962 7.07292 13.2188C7.07292 12.6049 7.2559 12.0649 7.62187 11.5988C7.98785 11.1327 8.45417 10.8166 9.02083 10.6503V9.14583H6.1875C5.79792 9.14583 5.46453 9.00724 5.18733 8.73004C4.91014 8.45285 4.77131 8.11922 4.77083 7.72917V6.3125H3.70833C3.50764 6.3125 3.33953 6.2445 3.204 6.1085C3.06847 5.9725 3.00047 5.80439 3 5.60417V2.0625C3 1.86181 3.068 1.6937 3.204 1.55817C3.34 1.42264 3.50811 1.35464 3.70833 1.35417H7.25C7.45069 1.35417 7.61904 1.42217 7.75504 1.55817C7.89104 1.69417 7.95881 1.86228 7.95833 2.0625V5.60417C7.95833 5.80486 7.89033 5.97321 7.75433 6.10921C7.61833 6.24521 7.45022 6.31297 7.25 6.3125H6.1875V7.72917H13.2708V6.22396C12.7042 6.05868 12.2378 5.74276 11.8719 5.27621C11.5059 4.80965 11.3229 4.26967 11.3229 3.65625C11.3229 2.9125 11.5798 2.28397 12.0936 1.77067C12.6074 1.25736 13.2359 1.00047 13.9792 1C14.7224 0.999528 15.3512 1.25642 15.8655 1.77067C16.3797 2.28492 16.6364 2.91345 16.6354 3.65625C16.6354 4.27014 16.4524 4.81036 16.0865 5.27692C15.7205 5.74347 15.2542 6.05915 14.6875 6.22396V7.72917C14.6875 8.11875 14.5489 8.45238 14.2717 8.73004C13.9945 9.00771 13.6609 9.14631 13.2708 9.14583H10.4375V10.651C11.0042 10.8163 11.4705 11.1322 11.8365 11.5988C12.2024 12.0653 12.3854 12.6053 12.3854 13.2188C12.3854 13.9625 12.1285 14.5913 11.6147 15.105C11.101 15.6188 10.4724 15.8755 9.72917 15.875Z" fill="black"/>
</svg>
