<svg width="8" height="28" viewBox="0 0 8 28" fill="none" xmlns="http://www.w3.org/2000/svg">
<path d="M-0.000117779 3.5C-0.000117779 5.433 1.75022 7 3.90949 7C6.06877 7 7.81911 5.433 7.81911 3.5C7.81911 1.567 6.06877 0 3.90949 0C1.75022 0 -0.000117779 1.567 -0.000117779 3.5Z" fill="white"/>
<path d="M-0.000346661 14C-0.000346661 15.9331 1.74999 17.5 3.90927 17.5C6.06854 17.5 7.81888 15.9331 7.81888 14C7.81888 12.067 6.06854 10.5 3.90927 10.5C1.74999 10.5 -0.000346661 12.067 -0.000346661 14Z" fill="white"/>
<path d="M-0.000346661 24.5C-0.000346661 26.4331 1.74999 28 3.90927 28C6.06854 28 7.81888 26.4331 7.81888 24.5C7.81888 22.567 6.06854 21 3.90927 21C1.74999 21 -0.000346661 22.567 -0.000346661 24.5Z" fill="white"/>
</svg>
