<svg width="8" height="28" viewBox="0 0 8 28" fill="none" xmlns="http://www.w3.org/2000/svg">
<path d="M0.000111103 3.5C0.000111103 5.433 1.75044 7 3.90972 7C6.069 7 7.81934 5.433 7.81934 3.5C7.81934 1.567 6.069 0 3.90972 0C1.75044 0 0.000111103 1.567 0.000111103 3.5Z" fill="white"/>
<path d="M0.000111103 14C0.000111103 15.9331 1.75044 17.5 3.90972 17.5C6.069 17.5 7.81934 15.9331 7.81934 14C7.81934 12.067 6.069 10.5 3.90972 10.5C1.75044 10.5 0.000111103 12.067 0.000111103 14Z" fill="white"/>
<path d="M0.000111103 24.5C0.000111103 26.4331 1.75044 28 3.90972 28C6.069 28 7.81934 26.4331 7.81934 24.5C7.81934 22.567 6.069 21 3.90972 21C1.75044 21 0.000111103 22.567 0.000111103 24.5Z" fill="white"/>
</svg>
