<svg width="24" height="27" viewBox="0 0 24 27" fill="none" xmlns="http://www.w3.org/2000/svg">
<path d="M19.3333 8.33333C19.3333 6.38841 18.5607 4.52315 17.1855 3.14788C15.8102 1.77262 13.9449 1 12 1C10.0551 1 8.18982 1.77262 6.81455 3.14788C5.43928 4.52315 4.66667 6.38841 4.66667 8.33333C4.66667 16.8889 1 19.3333 1 19.3333H23C23 19.3333 19.3333 16.8889 19.3333 8.33333Z" stroke="white" stroke-width="2" stroke-linecap="round" stroke-linejoin="round"/>
<path d="M14.1146 24.2222C13.8998 24.5927 13.5913 24.9001 13.2202 25.1139C12.8492 25.3276 12.4284 25.4401 12.0002 25.4401C11.5719 25.4401 11.1512 25.3276 10.7801 25.1139C10.409 24.9001 10.1006 24.5927 9.88574 24.2222" stroke="white" stroke-width="2" stroke-linecap="round" stroke-linejoin="round"/>
</svg>
