<svg width="24" height="27" viewBox="0 0 24 27" fill="none" xmlns="http://www.w3.org/2000/svg">
<path d="M19.3333 8.33333C19.3333 6.38841 18.5607 4.52315 17.1855 3.14788C15.8102 1.77262 13.9449 1 12 1C10.0551 1 8.18982 1.77262 6.81455 3.14788C5.43928 4.52315 4.66667 6.38841 4.66667 8.33333C4.66667 16.8889 1 19.3333 1 19.3333H23C23 19.3333 19.3333 16.8889 19.3333 8.33333Z" stroke="white" stroke-width="2" stroke-linecap="round" stroke-linejoin="round"/>
<path d="M14.1145 24.2222C13.8996 24.5927 13.5912 24.9001 13.2201 25.1139C12.849 25.3276 12.4283 25.4401 12 25.4401C11.5718 25.4401 11.1511 25.3276 10.78 25.1139C10.4089 24.9001 10.1005 24.5927 9.88559 24.2222" stroke="white" stroke-width="2" stroke-linecap="round" stroke-linejoin="round"/>
</svg>
