<svg width="14" height="15" viewBox="0 0 14 15" fill="none" xmlns="http://www.w3.org/2000/svg">
<path d="M6 6.84987H10.3333M3.66667 6.84987H4M3.66667 4.57492H4M3.66667 9.12482H4M10.3333 9.12482H9.66667M6 9.12482H8M10.3333 4.57492H8.33333M6 4.57492H6.66667M13 4.24993V3.84044C13 3.065 13 2.67696 12.8947 2.36497C12.7988 2.07535 12.6358 1.81113 12.4183 1.5928C12.2009 1.37447 11.9348 1.20788 11.6407 1.10595C11.3287 1 10.9427 1 10.17 1H3.83C3.05733 1 2.67133 1 2.35933 1.10595C2.06529 1.20782 1.79923 1.3743 1.58178 1.59252C1.36432 1.81073 1.2013 2.07482 1.10533 2.36432C1 2.67761 1 3.065 1 3.84044V9.44981M13 6.84987V12.9428C13 13.5005 12.3433 13.7969 11.928 13.4264C11.8115 13.3215 11.6587 13.2632 11.5 13.2632C11.3413 13.2632 11.1885 13.3215 11.072 13.4264L10.75 13.7137C10.5459 13.8978 10.278 14 10 14C9.72196 14 9.45414 13.8978 9.25 13.7137C9.04586 13.5297 8.77804 13.4274 8.5 13.4274C8.22196 13.4274 7.95414 13.5297 7.75 13.7137C7.54586 13.8978 7.27804 14 7 14C6.72196 14 6.45414 13.8978 6.25 13.7137C6.04586 13.5297 5.77804 13.4274 5.5 13.4274C5.22196 13.4274 4.95414 13.5297 4.75 13.7137C4.54586 13.8978 4.27804 14 4 14C3.72196 14 3.45414 13.8978 3.25 13.7137L2.928 13.4264C2.81148 13.3215 2.65865 13.2632 2.5 13.2632C2.34135 13.2632 2.18852 13.3215 2.072 13.4264C1.65667 13.7969 1 13.5005 1 12.9428V12.0498" stroke="black" stroke-width="1.5" stroke-linecap="round"/>
</svg>
