<svg width="21" height="20" viewBox="0 0 21 20" fill="none" xmlns="http://www.w3.org/2000/svg">
<path d="M0 16.8421V14.7368H2.90932L2.48615 14.3684C1.56927 13.5614 0.925693 12.6404 0.555416 11.6053C0.185139 10.5702 0 9.52632 0 8.47368C0 6.52632 0.586096 4.79368 1.75829 3.27579C2.93048 1.75789 4.46025 0.753684 6.34761 0.263158V2.47368C5.07809 2.92982 4.05542 3.70632 3.2796 4.80316C2.50378 5.9 2.11587 7.12351 2.11587 8.47368C2.11587 9.26316 2.26574 10.0309 2.56549 10.7768C2.86524 11.5228 3.33249 12.2112 3.96725 12.8421L4.23174 13.1053V10.5263H6.34761V16.8421H0ZM18.9635 7.36842H16.8212C16.733 6.75439 16.5436 6.16667 16.253 5.60526C15.9625 5.04386 15.57 4.50877 15.0756 4L14.8111 3.73684V6.31579H12.6952V0H19.0428V2.10526H16.1335L16.5567 2.47368C17.2796 3.21053 17.835 3.99123 18.2229 4.81579C18.6108 5.64035 18.8577 6.49123 18.9635 7.36842ZM14.8111 20L14.4937 18.4211C14.2821 18.3333 14.0839 18.2414 13.8991 18.1453C13.7144 18.0491 13.5246 17.9305 13.33 17.7895L11.796 18.2632L10.738 16.4737L11.9547 15.4211C11.9194 15.1754 11.9018 14.9474 11.9018 14.7368C11.9018 14.5263 11.9194 14.2982 11.9547 14.0526L10.738 13L11.796 11.2105L13.33 11.6842C13.5239 11.5439 13.7137 11.4256 13.8991 11.3295C14.0846 11.2333 14.2828 11.1411 14.4937 11.0526L14.8111 9.47368H16.927L17.2443 11.0526C17.4559 11.1404 17.6545 11.2368 17.84 11.3421C18.0254 11.4474 18.2148 11.5789 18.4081 11.7368L19.9421 11.2105L21 13.0526L19.7834 14.1053C19.8186 14.3158 19.8363 14.5351 19.8363 14.7632C19.8363 14.9912 19.8186 15.2105 19.7834 15.4211L21 16.4737L19.9421 18.2632L18.4081 17.7895C18.2141 17.9298 18.0247 18.0484 17.84 18.1453C17.6552 18.2421 17.4566 18.334 17.2443 18.4211L16.927 20H14.8111ZM15.869 16.8421C16.4509 16.8421 16.9492 16.6361 17.3639 16.2242C17.7786 15.8123 17.9856 15.3165 17.9849 14.7368C17.9842 14.1572 17.7772 13.6618 17.3639 13.2505C16.9506 12.8393 16.4523 12.633 15.869 12.6316C15.2857 12.6302 14.7878 12.8365 14.3752 13.2505C13.9626 13.6646 13.7553 14.16 13.7531 14.7368C13.751 15.3137 13.9584 15.8095 14.3752 16.2242C14.792 16.6389 15.29 16.8449 15.869 16.8421Z" fill="white"/>
</svg>
