<svg width="17" height="13" viewBox="0 0 17 13" fill="none" xmlns="http://www.w3.org/2000/svg">
<path d="M16.83 11.4674H0.17C0.0765 11.4674 0 11.544 0 11.6377V12.8297C0 12.9234 0.0765 13 0.17 13H16.83C16.9235 13 17 12.9234 17 12.8297V11.6377C17 11.544 16.9235 11.4674 16.83 11.4674ZM1.14112 8.80236L1.98475 9.64316C2.05062 9.70915 2.159 9.70915 2.22487 9.64316L7.21225 4.66432L9.28625 6.73547C9.41403 6.86229 9.58663 6.93343 9.7665 6.93343C9.94637 6.93343 10.119 6.86229 10.2468 6.73547L15.861 1.13294C15.9269 1.06695 15.9269 0.95839 15.861 0.892403L15.0174 0.0494693C14.9854 0.0177779 14.9423 0 14.8973 0C14.8523 0 14.8092 0.0177779 14.7773 0.0494693L9.76863 5.05173L7.6925 2.98058C7.56472 2.85376 7.39212 2.78262 7.21225 2.78262C7.03238 2.78262 6.85978 2.85376 6.732 2.98058L1.14112 8.56183C1.12523 8.57755 1.11261 8.59627 1.104 8.61692C1.09538 8.63756 1.09095 8.65972 1.09095 8.68209C1.09095 8.70447 1.09538 8.72662 1.104 8.74727C1.11261 8.76791 1.12523 8.78664 1.14112 8.80236Z" fill="black"/>
</svg>
