<svg width="739" height="302" viewBox="0 0 739 302" fill="none" xmlns="http://www.w3.org/2000/svg">
<g clip-path="url(#clip0_120_370)">
<path d="M138.464 37.8482H136.442C136.405 37.5866 136.33 37.3543 136.216 37.1511C136.102 36.9449 135.956 36.7695 135.777 36.6249C135.599 36.4802 135.393 36.3694 135.159 36.2925C134.928 36.2155 134.677 36.1771 134.406 36.1771C133.917 36.1771 133.491 36.2986 133.127 36.5418C132.764 36.7818 132.483 37.1327 132.283 37.5943C132.082 38.0529 131.982 38.6099 131.982 39.2655C131.982 39.9395 132.082 40.5058 132.283 40.9643C132.486 41.4229 132.769 41.7691 133.132 42.0031C133.495 42.237 133.915 42.3539 134.392 42.3539C134.66 42.3539 134.908 42.3185 135.136 42.2477C135.366 42.1769 135.571 42.0738 135.75 41.9384C135.928 41.7999 136.076 41.6322 136.193 41.4352C136.313 41.2383 136.396 41.0136 136.442 40.7612L138.464 40.7705C138.412 41.2044 138.281 41.623 138.072 42.0261C137.865 42.4262 137.587 42.7848 137.236 43.1018C136.888 43.4157 136.473 43.665 135.99 43.8496C135.509 44.0312 134.966 44.122 134.36 44.122C133.517 44.122 132.763 43.9312 132.098 43.5496C131.436 43.1679 130.913 42.6155 130.528 41.8923C130.147 41.169 129.956 40.2934 129.956 39.2655C129.956 38.2345 130.15 37.3573 130.538 36.6341C130.925 35.9108 131.452 35.3599 132.116 34.9814C132.781 34.5998 133.529 34.4089 134.36 34.4089C134.908 34.4089 135.416 34.4859 135.883 34.6398C136.354 34.7937 136.771 35.0183 137.134 35.3138C137.498 35.6062 137.793 35.9647 138.021 36.3894C138.252 36.8141 138.399 37.3004 138.464 37.8482ZM143.064 44.1312C142.347 44.1312 141.727 43.9789 141.204 43.6742C140.684 43.3664 140.282 42.9387 139.999 42.3908C139.716 41.8399 139.574 41.2013 139.574 40.475C139.574 39.7425 139.716 39.1024 139.999 38.5545C140.282 38.0036 140.684 37.5758 141.204 37.2712C141.727 36.9634 142.347 36.8095 143.064 36.8095C143.781 36.8095 144.4 36.9634 144.92 37.2712C145.443 37.5758 145.847 38.0036 146.13 38.5545C146.413 39.1024 146.554 39.7425 146.554 40.475C146.554 41.2013 146.413 41.8399 146.13 42.3908C145.847 42.9387 145.443 43.3664 144.92 43.6742C144.4 43.9789 143.781 44.1312 143.064 44.1312ZM143.074 42.6078C143.4 42.6078 143.672 42.5155 143.891 42.3308C144.109 42.1431 144.274 41.8876 144.385 41.5645C144.499 41.2413 144.555 40.8736 144.555 40.4611C144.555 40.0487 144.499 39.681 144.385 39.3578C144.274 39.0347 144.109 38.7792 143.891 38.5915C143.672 38.4037 143.4 38.3099 143.074 38.3099C142.744 38.3099 142.467 38.4037 142.243 38.5915C142.021 38.7792 141.853 39.0347 141.739 39.3578C141.629 39.681 141.573 40.0487 141.573 40.4611C141.573 40.8736 141.629 41.2413 141.739 41.5645C141.853 41.8876 142.021 42.1431 142.243 42.3308C142.467 42.5155 142.744 42.6078 143.074 42.6078ZM147.833 43.9928V36.9018H149.707V38.1529H149.791C149.938 37.7374 150.184 37.4097 150.529 37.1696C150.874 36.9295 151.286 36.8095 151.766 36.8095C152.253 36.8095 152.667 36.9311 153.008 37.1742C153.35 37.4143 153.578 37.7405 153.691 38.1529H153.765C153.91 37.7467 154.172 37.422 154.55 37.1788C154.932 36.9326 155.383 36.8095 155.903 36.8095C156.564 36.8095 157.101 37.0203 157.514 37.442C157.929 37.8605 158.137 38.4545 158.137 39.2239V43.9928H156.175V39.6117C156.175 39.2178 156.07 38.9223 155.861 38.7254C155.652 38.5284 155.39 38.4299 155.076 38.4299C154.719 38.4299 154.441 38.5438 154.241 38.7715C154.041 38.9962 153.941 39.2932 153.941 39.6625V43.9928H152.034V39.5702C152.034 39.2224 151.934 38.9454 151.734 38.7392C151.537 38.533 151.277 38.4299 150.954 38.4299C150.735 38.4299 150.538 38.4853 150.363 38.5961C150.191 38.7038 150.054 38.8562 149.952 39.0531C149.851 39.247 149.8 39.4748 149.8 39.7364V43.9928H147.833ZM159.691 46.6518V36.9018H161.629V38.0929H161.717C161.803 37.9021 161.928 37.7082 162.091 37.5112C162.257 37.3112 162.473 37.145 162.737 37.0126C163.005 36.8772 163.338 36.8095 163.735 36.8095C164.252 36.8095 164.729 36.9449 165.166 37.2158C165.603 37.4835 165.952 37.8882 166.214 38.4299C166.475 38.9685 166.606 39.644 166.606 40.4565C166.606 41.2475 166.478 41.9153 166.223 42.4601C165.971 43.0017 165.626 43.4126 165.189 43.6927C164.755 43.9697 164.269 44.1082 163.73 44.1082C163.348 44.1082 163.024 44.0451 162.756 43.9189C162.491 43.7927 162.274 43.6342 162.105 43.4434C161.936 43.2495 161.806 43.0541 161.717 42.8571H161.657V46.6518H159.691ZM161.616 40.4473C161.616 40.8689 161.674 41.2367 161.791 41.5506C161.908 41.8646 162.077 42.1092 162.299 42.2847C162.52 42.457 162.79 42.5432 163.107 42.5432C163.427 42.5432 163.698 42.4555 163.919 42.28C164.141 42.1015 164.309 41.8553 164.422 41.5414C164.539 41.2244 164.598 40.8597 164.598 40.4473C164.598 40.038 164.541 39.6779 164.427 39.367C164.313 39.0562 164.145 38.8131 163.924 38.6376C163.702 38.4622 163.43 38.3745 163.107 38.3745C162.787 38.3745 162.516 38.4591 162.294 38.6284C162.076 38.7977 161.908 39.0377 161.791 39.3486C161.674 39.6594 161.616 40.0257 161.616 40.4473ZM169.939 44.1266C169.487 44.1266 169.084 44.0481 168.73 43.8912C168.376 43.7312 168.096 43.4957 167.889 43.1849C167.686 42.8709 167.585 42.4801 167.585 42.0123C167.585 41.6183 167.657 41.2875 167.802 41.0197C167.946 40.752 168.143 40.5365 168.393 40.3734C168.642 40.2103 168.925 40.0872 169.242 40.0041C169.562 39.921 169.898 39.8625 170.248 39.8287C170.661 39.7856 170.993 39.7456 171.246 39.7087C171.498 39.6687 171.681 39.6102 171.795 39.5332C171.909 39.4563 171.966 39.3424 171.966 39.1916V39.1639C171.966 38.8715 171.873 38.6453 171.689 38.4853C171.507 38.3253 171.249 38.2452 170.913 38.2452C170.559 38.2452 170.278 38.3237 170.068 38.4807C169.859 38.6346 169.721 38.8285 169.653 39.0624L167.834 38.9146C167.926 38.4838 168.108 38.1114 168.379 37.7974C168.65 37.4804 168.999 37.2373 169.427 37.068C169.858 36.8957 170.356 36.8095 170.922 36.8095C171.316 36.8095 171.693 36.8557 172.053 36.948C172.417 37.0403 172.738 37.1834 173.018 37.3773C173.301 37.5712 173.525 37.8205 173.688 38.1252C173.851 38.4268 173.932 38.7884 173.932 39.2101V43.9928H172.067V43.0094H172.012C171.898 43.231 171.746 43.4265 171.555 43.5957C171.364 43.7619 171.135 43.8927 170.867 43.9881C170.599 44.0805 170.29 44.1266 169.939 44.1266ZM170.502 42.7694C170.792 42.7694 171.047 42.7124 171.269 42.5986C171.49 42.4816 171.664 42.3247 171.79 42.1277C171.917 41.9307 171.98 41.7076 171.98 41.4583V40.7058C171.918 40.7458 171.833 40.7828 171.726 40.8166C171.621 40.8474 171.503 40.8766 171.37 40.9043C171.238 40.9289 171.106 40.952 170.973 40.9736C170.841 40.992 170.721 41.009 170.613 41.0244C170.382 41.0582 170.181 41.1121 170.008 41.1859C169.836 41.2598 169.702 41.3598 169.607 41.486C169.511 41.6091 169.464 41.763 169.464 41.9477C169.464 42.2154 169.561 42.4201 169.754 42.5616C169.951 42.7001 170.201 42.7694 170.502 42.7694ZM177.425 39.8933V43.9928H175.458V36.9018H177.332V38.1529H177.416C177.572 37.7405 177.836 37.4143 178.205 37.1742C178.574 36.9311 179.022 36.8095 179.548 36.8095C180.041 36.8095 180.47 36.9172 180.836 37.1327C181.203 37.3481 181.487 37.6559 181.69 38.056C181.894 38.453 181.995 38.9269 181.995 39.4778V43.9928H180.028V39.8287C180.032 39.3947 179.921 39.0562 179.696 38.8131C179.471 38.5669 179.162 38.4437 178.768 38.4437C178.503 38.4437 178.27 38.5007 178.066 38.6146C177.866 38.7284 177.709 38.8946 177.596 39.1131C177.485 39.3286 177.428 39.5886 177.425 39.8933ZM184.505 46.6518C184.256 46.6518 184.022 46.6318 183.804 46.5918C183.588 46.5549 183.41 46.5072 183.268 46.4487L183.711 44.9807C183.942 45.0515 184.15 45.0899 184.334 45.0961C184.522 45.1022 184.684 45.0592 184.819 44.9668C184.958 44.8745 185.07 44.7175 185.156 44.4959L185.272 44.1959L182.728 36.9018H184.796L186.264 42.1092H186.338L187.82 36.9018H189.902L187.146 44.7591C187.014 45.1407 186.834 45.4731 186.606 45.7562C186.381 46.0425 186.096 46.2625 185.752 46.4164C185.407 46.5734 184.992 46.6518 184.505 46.6518ZM130.122 59.9928V50.5382H133.852C134.569 50.5382 135.18 50.6752 135.685 50.9491C136.19 51.2199 136.574 51.5969 136.839 52.0801C137.107 52.5602 137.241 53.1142 137.241 53.742C137.241 54.3699 137.105 54.9239 136.834 55.404C136.564 55.8841 136.171 56.258 135.657 56.5258C135.146 56.7935 134.528 56.9274 133.801 56.9274H131.424V55.3255H133.478C133.863 55.3255 134.18 55.2593 134.429 55.127C134.682 54.9916 134.869 54.8054 134.992 54.5684C135.119 54.3283 135.182 54.0529 135.182 53.742C135.182 53.4281 135.119 53.1542 134.992 52.9203C134.869 52.6833 134.682 52.5002 134.429 52.3709C134.177 52.2386 133.857 52.1724 133.469 52.1724H132.121V59.9928H130.122ZM141.619 60.1312C140.89 60.1312 140.262 59.9835 139.736 59.6881C139.213 59.3895 138.809 58.9679 138.526 58.4231C138.243 57.8753 138.102 57.2275 138.102 56.4796C138.102 55.7502 138.243 55.1101 138.526 54.5592C138.809 54.0083 139.208 53.5789 139.722 53.2712C140.239 52.9634 140.845 52.8095 141.541 52.8095C142.009 52.8095 142.444 52.8849 142.847 53.0357C143.254 53.1834 143.608 53.4066 143.909 53.7051C144.214 54.0036 144.451 54.3791 144.62 54.8315C144.789 55.2809 144.874 55.8071 144.874 56.4104V56.9505H138.886V55.7317H143.023C143.023 55.4486 142.961 55.1978 142.838 54.9793C142.715 54.7607 142.544 54.5899 142.326 54.4668C142.11 54.3406 141.859 54.2776 141.573 54.2776C141.275 54.2776 141.01 54.3468 140.779 54.4853C140.551 54.6207 140.373 54.8038 140.244 55.0347C140.114 55.2624 140.048 55.5163 140.045 55.7964V56.9551C140.045 57.306 140.11 57.6091 140.239 57.8646C140.371 58.12 140.558 58.317 140.798 58.4555C141.038 58.594 141.322 58.6632 141.652 58.6632C141.87 58.6632 142.07 58.6324 142.252 58.5709C142.433 58.5093 142.589 58.417 142.718 58.2939C142.847 58.1708 142.946 58.02 143.014 57.8415L144.832 57.9615C144.74 58.3985 144.551 58.7802 144.265 59.1064C143.981 59.4295 143.615 59.6819 143.166 59.8635C142.72 60.042 142.204 60.1312 141.619 60.1312ZM146.157 59.9928V52.9018H148.064V54.1391H148.138C148.267 53.699 148.484 53.3666 148.789 53.1419C149.093 52.9142 149.444 52.8003 149.841 52.8003C149.94 52.8003 150.046 52.8064 150.16 52.8187C150.274 52.8311 150.374 52.848 150.46 52.8695V54.6146C150.368 54.5869 150.24 54.5622 150.077 54.5407C149.914 54.5191 149.764 54.5084 149.629 54.5084C149.34 54.5084 149.081 54.5715 148.853 54.6977C148.629 54.8208 148.45 54.9931 148.318 55.2147C148.189 55.4363 148.124 55.6917 148.124 55.981V59.9928H146.157ZM155.645 52.9018V54.3791H151.269V52.9018H155.645ZM152.271 59.9928V52.3894C152.271 51.8754 152.371 51.4492 152.571 51.1106C152.774 50.7721 153.051 50.5182 153.402 50.3489C153.753 50.1797 154.151 50.095 154.597 50.095C154.899 50.095 155.174 50.1181 155.424 50.1643C155.676 50.2104 155.864 50.252 155.987 50.2889L155.636 51.7662C155.559 51.7416 155.464 51.7185 155.35 51.6969C155.239 51.6754 155.125 51.6646 155.008 51.6646C154.719 51.6646 154.517 51.7323 154.404 51.8678C154.29 52.0001 154.233 52.1863 154.233 52.4263V59.9928H152.271ZM159.797 60.1312C159.08 60.1312 158.46 59.9789 157.936 59.6742C157.416 59.3664 157.015 58.9387 156.731 58.3908C156.448 57.8399 156.307 57.2013 156.307 56.475C156.307 55.7425 156.448 55.1024 156.731 54.5545C157.015 54.0036 157.416 53.5758 157.936 53.2712C158.46 52.9634 159.08 52.8095 159.797 52.8095C160.514 52.8095 161.132 52.9634 161.653 53.2712C162.176 53.5758 162.579 54.0036 162.862 54.5545C163.145 55.1024 163.287 55.7425 163.287 56.475C163.287 57.2013 163.145 57.8399 162.862 58.3908C162.579 58.9387 162.176 59.3664 161.653 59.6742C161.132 59.9789 160.514 60.1312 159.797 60.1312ZM159.806 58.6078C160.132 58.6078 160.405 58.5155 160.623 58.3308C160.842 58.1431 161.006 57.8876 161.117 57.5645C161.231 57.2413 161.288 56.8736 161.288 56.4611C161.288 56.0487 161.231 55.681 161.117 55.3578C161.006 55.0347 160.842 54.7792 160.623 54.5915C160.405 54.4037 160.132 54.3099 159.806 54.3099C159.477 54.3099 159.2 54.4037 158.975 54.5915C158.753 54.7792 158.586 55.0347 158.472 55.3578C158.361 55.681 158.306 56.0487 158.306 56.4611C158.306 56.8736 158.361 57.2413 158.472 57.5645C158.586 57.8876 158.753 58.1431 158.975 58.3308C159.2 58.5155 159.477 58.6078 159.806 58.6078ZM164.566 59.9928V52.9018H166.472V54.1391H166.546C166.675 53.699 166.892 53.3666 167.197 53.1419C167.502 52.9142 167.852 52.8003 168.25 52.8003C168.348 52.8003 168.454 52.8064 168.568 52.8187C168.682 52.8311 168.782 52.848 168.868 52.8695V54.6146C168.776 54.5869 168.648 54.5622 168.485 54.5407C168.322 54.5191 168.173 54.5084 168.037 54.5084C167.748 54.5084 167.489 54.5715 167.262 54.6977C167.037 54.8208 166.858 54.9931 166.726 55.2147C166.597 55.4363 166.532 55.6917 166.532 55.981V59.9928H164.566ZM169.885 59.9928V52.9018H171.759V54.1529H171.842C171.99 53.7374 172.236 53.4097 172.581 53.1696C172.926 52.9295 173.338 52.8095 173.818 52.8095C174.304 52.8095 174.718 52.9311 175.06 53.1742C175.402 53.4143 175.629 53.7405 175.743 54.1529H175.817C175.962 53.7467 176.223 53.422 176.602 53.1788C176.984 52.9326 177.434 52.8095 177.955 52.8095C178.616 52.8095 179.153 53.0203 179.566 53.442C179.981 53.8605 180.189 54.4545 180.189 55.2239V59.9928H178.227V55.6117C178.227 55.2178 178.122 54.9223 177.913 54.7254C177.704 54.5284 177.442 54.4299 177.128 54.4299C176.771 54.4299 176.493 54.5438 176.293 54.7715C176.093 54.9962 175.992 55.2932 175.992 55.6625V59.9928H174.086V55.5702C174.086 55.2224 173.986 54.9454 173.786 54.7392C173.589 54.533 173.329 54.4299 173.006 54.4299C172.787 54.4299 172.59 54.4853 172.415 54.5961C172.242 54.7038 172.105 54.8562 172.004 55.0531C171.902 55.247 171.852 55.4748 171.852 55.7364V59.9928H169.885ZM183.764 60.1266C183.312 60.1266 182.909 60.0481 182.555 59.8912C182.201 59.7312 181.921 59.4957 181.715 59.1849C181.511 58.8709 181.41 58.4801 181.41 58.0123C181.41 57.6183 181.482 57.2875 181.627 57.0197C181.772 56.752 181.969 56.5365 182.218 56.3734C182.467 56.2103 182.75 56.0872 183.067 56.0041C183.387 55.921 183.723 55.8625 184.074 55.8287C184.486 55.7856 184.818 55.7456 185.071 55.7087C185.323 55.6687 185.506 55.6102 185.62 55.5332C185.734 55.4563 185.791 55.3424 185.791 55.1916V55.1639C185.791 54.8715 185.699 54.6453 185.514 54.4853C185.332 54.3253 185.074 54.2452 184.738 54.2452C184.384 54.2452 184.103 54.3237 183.894 54.4807C183.684 54.6346 183.546 54.8285 183.478 55.0624L181.659 54.9146C181.752 54.4838 181.933 54.1114 182.204 53.7974C182.475 53.4804 182.824 53.2373 183.252 53.068C183.683 52.8957 184.181 52.8095 184.748 52.8095C185.142 52.8095 185.519 52.8557 185.879 52.948C186.242 53.0403 186.563 53.1834 186.844 53.3773C187.127 53.5712 187.35 53.8205 187.513 54.1252C187.676 54.4268 187.758 54.7884 187.758 55.2101V59.9928H185.893V59.0094H185.837C185.723 59.231 185.571 59.4265 185.38 59.5957C185.189 59.7619 184.96 59.8927 184.692 59.9881C184.424 60.0805 184.115 60.1266 183.764 60.1266ZM184.328 58.7694C184.617 58.7694 184.872 58.7124 185.094 58.5986C185.315 58.4816 185.489 58.3247 185.616 58.1277C185.742 57.9307 185.805 57.7076 185.805 57.4583V56.7058C185.743 56.7458 185.659 56.7828 185.551 56.8166C185.446 56.8474 185.328 56.8766 185.195 56.9043C185.063 56.9289 184.931 56.952 184.798 56.9736C184.666 56.992 184.546 57.009 184.438 57.0244C184.208 57.0582 184.006 57.1121 183.834 57.1859C183.661 57.2598 183.527 57.3598 183.432 57.486C183.337 57.6091 183.289 57.763 183.289 57.9477C183.289 58.2154 183.386 58.4201 183.58 58.5616C183.777 58.7001 184.026 58.7694 184.328 58.7694ZM191.25 55.8933V59.9928H189.283V52.9018H191.158V54.1529H191.241C191.398 53.7405 191.661 53.4143 192.03 53.1742C192.399 52.9311 192.847 52.8095 193.374 52.8095C193.866 52.8095 194.295 52.9172 194.662 53.1327C195.028 53.3481 195.312 53.6559 195.516 54.056C195.719 54.453 195.82 54.9269 195.82 55.4778V59.9928H193.854V55.8287C193.857 55.3947 193.746 55.0562 193.521 54.8131C193.297 54.5669 192.987 54.4437 192.593 54.4437C192.329 54.4437 192.095 54.5007 191.892 54.6146C191.692 54.7284 191.535 54.8946 191.421 55.1131C191.31 55.3286 191.253 55.5886 191.25 55.8933ZM200.574 60.1312C199.848 60.1312 199.223 59.9774 198.7 59.6696C198.18 59.3588 197.78 58.9279 197.5 58.377C197.223 57.8261 197.084 57.1921 197.084 56.475C197.084 55.7487 197.224 55.1116 197.504 54.5638C197.787 54.0129 198.189 53.5835 198.709 53.2758C199.229 52.9649 199.848 52.8095 200.565 52.8095C201.183 52.8095 201.725 52.9218 202.19 53.1465C202.655 53.3712 203.022 53.6866 203.293 54.0929C203.564 54.4991 203.713 54.9762 203.741 55.524H201.885C201.833 55.1701 201.694 54.8854 201.47 54.67C201.248 54.4514 200.957 54.3422 200.597 54.3422C200.292 54.3422 200.026 54.4253 199.799 54.5915C199.574 54.7546 199.398 54.9931 199.272 55.307C199.146 55.6209 199.083 56.001 199.083 56.4473C199.083 56.8997 199.145 57.2844 199.268 57.6014C199.394 57.9184 199.571 58.16 199.799 58.3262C200.026 58.4924 200.292 58.5755 200.597 58.5755C200.822 58.5755 201.023 58.5293 201.202 58.437C201.384 58.3447 201.533 58.2108 201.65 58.0354C201.77 57.8569 201.848 57.643 201.885 57.3937H203.741C203.71 57.9353 203.562 58.4124 203.298 58.8248C203.036 59.2341 202.675 59.5542 202.213 59.785C201.751 60.0158 201.205 60.1312 200.574 60.1312ZM208.232 60.1312C207.502 60.1312 206.874 59.9835 206.348 59.6881C205.825 59.3895 205.422 58.9679 205.139 58.4231C204.855 57.8753 204.714 57.2275 204.714 56.4796C204.714 55.7502 204.855 55.1101 205.139 54.5592C205.422 54.0083 205.82 53.5789 206.334 53.2712C206.851 52.9634 207.458 52.8095 208.153 52.8095C208.621 52.8095 209.056 52.8849 209.46 53.0357C209.866 53.1834 210.22 53.4066 210.521 53.7051C210.826 54.0036 211.063 54.3791 211.232 54.8315C211.402 55.2809 211.486 55.8071 211.486 56.4104V56.9505H205.499V55.7317H209.635C209.635 55.4486 209.574 55.1978 209.45 54.9793C209.327 54.7607 209.157 54.5899 208.938 54.4668C208.723 54.3406 208.472 54.2776 208.186 54.2776C207.887 54.2776 207.622 54.3468 207.391 54.4853C207.164 54.6207 206.985 54.8038 206.856 55.0347C206.727 55.2624 206.661 55.5163 206.657 55.7964V56.9551C206.657 57.306 206.722 57.6091 206.851 57.8646C206.984 58.12 207.17 58.317 207.41 58.4555C207.65 58.594 207.935 58.6632 208.264 58.6632C208.482 58.6632 208.683 58.6324 208.864 58.5709C209.046 58.5093 209.201 58.417 209.33 58.2939C209.46 58.1708 209.558 58.02 209.626 57.8415L211.445 57.9615C211.352 58.3985 211.163 58.7802 210.877 59.1064C210.594 59.4295 210.228 59.6819 209.778 59.8635C209.332 60.042 208.816 60.1312 208.232 60.1312Z" fill="black"/>
<path d="M610.695 248.743H129.3V249.498H610.695V248.743Z" fill="#CCCCCC"/>
<path d="M610.695 217.788H129.3V218.543H610.695V217.788Z" fill="#CCCCCC"/>
<path d="M610.695 186.833H129.3V187.588H610.695V186.833Z" fill="#CCCCCC"/>
<path d="M610.695 155.878H129.3V156.633H610.695V155.878Z" fill="#CCCCCC"/>
<path d="M610.695 124.923H129.3V125.678H610.695V124.923Z" fill="#CCCCCC"/>
<path d="M610.695 93.9685H129.3V94.7235H610.695V93.9685Z" fill="#CCCCCC"/>
<path d="M610.695 63.0135H129.3V63.7685H610.695V63.0135Z" fill="#CCCCCC"/>
<path d="M610.695 233.643H129.3V234.398H610.695V233.643Z" fill="#EBEBEB"/>
<path d="M610.695 202.688H129.3V203.443H610.695V202.688Z" fill="#EBEBEB"/>
<path d="M610.695 171.733H129.3V172.488H610.695V171.733Z" fill="#EBEBEB"/>
<path d="M610.695 140.778H129.3V141.533H610.695V140.778Z" fill="#EBEBEB"/>
<path d="M610.695 109.823H129.3V110.578H610.695V109.823Z" fill="#EBEBEB"/>
<path d="M610.695 78.8685H129.3V79.6235H610.695V78.8685Z" fill="#EBEBEB"/>
<path d="M129.797 249.121V94.346L289.931 68.0342L450.064 146.969L610.197 89.7027V249.121H129.797Z" fill="#FFB727" fill-opacity="0.51"/>
<path d="M129.797 249.121V187.211L289.931 177.924L450.064 75.7729L610.197 165.542V249.121H129.797Z" fill="#FFDF01" fill-opacity="0.49"/>
<path d="M610.695 248.743H129.3V249.498H610.695V248.743Z" fill="#333333"/>
<path d="M129.797 94.346L289.931 68.0342L450.064 146.969L610.197 89.7027" stroke="#FFDF01" stroke-width="2"/>
<path d="M129.797 187.211L289.931 177.924L450.064 75.7729L610.197 165.542" stroke="#FC9C1E" stroke-width="2"/>
<path d="M115.618 267.066V266.235L118.739 262.819C119.105 262.419 119.406 262.071 119.643 261.776C119.88 261.477 120.056 261.197 120.17 260.936C120.287 260.671 120.345 260.394 120.345 260.105C120.345 259.772 120.265 259.484 120.105 259.241C119.948 258.998 119.733 258.81 119.459 258.678C119.185 258.546 118.877 258.48 118.536 258.48C118.172 258.48 117.855 258.555 117.585 258.706C117.317 258.854 117.109 259.061 116.961 259.329C116.817 259.597 116.744 259.911 116.744 260.271H115.655C115.655 259.717 115.783 259.231 116.038 258.812C116.293 258.393 116.641 258.067 117.081 257.833C117.525 257.599 118.022 257.482 118.572 257.482C119.126 257.482 119.617 257.599 120.045 257.833C120.473 258.067 120.808 258.383 121.051 258.78C121.295 259.177 121.416 259.618 121.416 260.105C121.416 260.452 121.353 260.792 121.227 261.125C121.104 261.454 120.888 261.822 120.581 262.228C120.276 262.631 119.853 263.124 119.311 263.705L117.188 265.977V266.051H121.582V267.066H115.618ZM126.573 267.195C125.877 267.195 125.285 267.006 124.795 266.628C124.306 266.246 123.932 265.694 123.674 264.97C123.415 264.244 123.286 263.367 123.286 262.339C123.286 261.317 123.415 260.445 123.674 259.721C123.935 258.995 124.311 258.441 124.8 258.059C125.293 257.675 125.883 257.482 126.573 257.482C127.262 257.482 127.852 257.675 128.341 258.059C128.833 258.441 129.209 258.995 129.467 259.721C129.729 260.445 129.86 261.317 129.86 262.339C129.86 263.367 129.73 264.244 129.472 264.97C129.213 265.694 128.839 266.246 128.35 266.628C127.861 267.006 127.268 267.195 126.573 267.195ZM126.573 266.18C127.262 266.18 127.798 265.847 128.179 265.183C128.561 264.518 128.752 263.57 128.752 262.339C128.752 261.52 128.664 260.823 128.489 260.248C128.316 259.672 128.067 259.234 127.741 258.932C127.418 258.63 127.028 258.48 126.573 258.48C125.89 258.48 125.356 258.817 124.971 259.491C124.586 260.162 124.394 261.111 124.394 262.339C124.394 263.158 124.48 263.853 124.652 264.426C124.825 264.998 125.072 265.434 125.396 265.732C125.722 266.031 126.114 266.18 126.573 266.18ZM134.938 257.612V267.066H133.793V258.812H133.738L131.429 260.345V259.181L133.793 257.612H134.938ZM140.852 267.195C140.242 267.195 139.699 267.091 139.222 266.882C138.748 266.672 138.371 266.381 138.091 266.009C137.814 265.634 137.663 265.198 137.638 264.703H138.802C138.826 265.007 138.931 265.27 139.116 265.492C139.3 265.711 139.542 265.88 139.841 266C140.139 266.12 140.47 266.18 140.833 266.18C141.239 266.18 141.599 266.109 141.913 265.968C142.227 265.826 142.473 265.629 142.652 265.377C142.83 265.124 142.92 264.832 142.92 264.499C142.92 264.152 142.834 263.845 142.661 263.581C142.489 263.313 142.237 263.104 141.904 262.953C141.572 262.802 141.165 262.727 140.685 262.727H139.928V261.711H140.685C141.061 261.711 141.39 261.643 141.673 261.508C141.96 261.373 142.183 261.182 142.343 260.936C142.506 260.689 142.587 260.4 142.587 260.068C142.587 259.748 142.517 259.469 142.375 259.232C142.233 258.995 142.033 258.81 141.775 258.678C141.519 258.546 141.218 258.48 140.87 258.48C140.544 258.48 140.236 258.54 139.947 258.66C139.661 258.777 139.427 258.947 139.245 259.172C139.063 259.394 138.965 259.661 138.95 259.975H137.842C137.86 259.48 138.009 259.046 138.289 258.673C138.569 258.298 138.936 258.006 139.388 257.796C139.844 257.587 140.344 257.482 140.888 257.482C141.473 257.482 141.975 257.601 142.393 257.838C142.812 258.072 143.134 258.381 143.358 258.766C143.583 259.151 143.695 259.566 143.695 260.012C143.695 260.545 143.555 260.999 143.275 261.374C142.998 261.75 142.621 262.01 142.144 262.154V262.228C142.741 262.327 143.208 262.581 143.543 262.99C143.878 263.396 144.046 263.899 144.046 264.499C144.046 265.013 143.906 265.475 143.626 265.884C143.349 266.291 142.971 266.611 142.49 266.845C142.01 267.079 141.464 267.195 140.852 267.195Z" fill="#222222"/>
<path d="M275.719 267.066V266.235L278.84 262.819C279.206 262.419 279.508 262.071 279.745 261.776C279.982 261.477 280.157 261.197 280.271 260.936C280.388 260.671 280.446 260.394 280.446 260.105C280.446 259.772 280.366 259.484 280.206 259.241C280.049 258.998 279.834 258.81 279.56 258.678C279.286 258.546 278.978 258.48 278.637 258.48C278.273 258.48 277.956 258.555 277.686 258.706C277.418 258.854 277.21 259.061 277.062 259.329C276.918 259.597 276.845 259.911 276.845 260.271H275.756C275.756 259.717 275.884 259.231 276.139 258.812C276.395 258.393 276.742 258.067 277.182 257.833C277.626 257.599 278.123 257.482 278.674 257.482C279.227 257.482 279.718 257.599 280.146 257.833C280.574 258.067 280.909 258.383 281.153 258.78C281.396 259.177 281.517 259.618 281.517 260.105C281.517 260.452 281.454 260.792 281.328 261.125C281.205 261.454 280.989 261.822 280.682 262.228C280.377 262.631 279.954 263.124 279.412 263.705L277.289 265.977V266.051H281.683V267.066H275.719ZM286.674 267.195C285.978 267.195 285.386 267.006 284.897 266.628C284.407 266.246 284.033 265.694 283.775 264.97C283.516 264.244 283.387 263.367 283.387 262.339C283.387 261.317 283.516 260.445 283.775 259.721C284.036 258.995 284.412 258.441 284.901 258.059C285.394 257.675 285.984 257.482 286.674 257.482C287.363 257.482 287.953 257.675 288.442 258.059C288.934 258.441 289.31 258.995 289.568 259.721C289.83 260.445 289.961 261.317 289.961 262.339C289.961 263.367 289.832 264.244 289.573 264.97C289.315 265.694 288.941 266.246 288.451 266.628C287.962 267.006 287.369 267.195 286.674 267.195ZM286.674 266.18C287.363 266.18 287.899 265.847 288.28 265.183C288.662 264.518 288.853 263.57 288.853 262.339C288.853 261.52 288.765 260.823 288.59 260.248C288.417 259.672 288.168 259.234 287.842 258.932C287.519 258.63 287.129 258.48 286.674 258.48C285.991 258.48 285.457 258.817 285.072 259.491C284.687 260.162 284.495 261.111 284.495 262.339C284.495 263.158 284.581 263.853 284.753 264.426C284.926 264.998 285.174 265.434 285.497 265.732C285.823 266.031 286.215 266.18 286.674 266.18ZM295.039 257.612V267.066H293.894V258.812H293.839L291.53 260.345V259.181L293.894 257.612H295.039ZM297.536 265.127V264.186L301.691 257.612H302.375V259.07H301.913L298.774 264.038V264.112H304.369V265.127H297.536ZM301.987 267.066V264.841V264.403V257.612H303.076V267.066H301.987Z" fill="#222222"/>
<path d="M439.298 264.066V263.427L441.699 260.799C441.98 260.491 442.212 260.224 442.395 259.997C442.577 259.767 442.712 259.552 442.799 259.35C442.889 259.147 442.934 258.934 442.934 258.711C442.934 258.455 442.873 258.234 442.75 258.047C442.629 257.86 442.463 257.716 442.253 257.614C442.042 257.512 441.805 257.461 441.542 257.461C441.263 257.461 441.019 257.519 440.811 257.635C440.605 257.749 440.445 257.909 440.331 258.115C440.22 258.32 440.165 258.562 440.165 258.839H439.326C439.326 258.413 439.425 258.039 439.621 257.717C439.818 257.395 440.085 257.144 440.424 256.964C440.765 256.784 441.147 256.694 441.571 256.694C441.997 256.694 442.375 256.784 442.704 256.964C443.033 257.144 443.291 257.387 443.478 257.692C443.665 257.997 443.758 258.337 443.758 258.711C443.758 258.979 443.71 259.24 443.613 259.496C443.518 259.749 443.352 260.032 443.116 260.345C442.881 260.655 442.556 261.034 442.139 261.481L440.505 263.228V263.285H443.886V264.066H439.298ZM447.725 264.166C447.19 264.166 446.734 264.02 446.358 263.729C445.981 263.435 445.694 263.01 445.495 262.454C445.296 261.895 445.197 261.221 445.197 260.43C445.197 259.644 445.296 258.973 445.495 258.416C445.696 257.858 445.985 257.432 446.361 257.138C446.74 256.842 447.195 256.694 447.725 256.694C448.255 256.694 448.709 256.842 449.085 257.138C449.464 257.432 449.753 257.858 449.951 258.416C450.153 258.973 450.253 259.644 450.253 260.43C450.253 261.221 450.154 261.895 449.955 262.454C449.756 263.01 449.469 263.435 449.092 263.729C448.716 264.02 448.26 264.166 447.725 264.166ZM447.725 263.384C448.255 263.384 448.667 263.129 448.961 262.617C449.254 262.106 449.401 261.377 449.401 260.43C449.401 259.8 449.334 259.264 449.199 258.821C449.066 258.378 448.874 258.041 448.623 257.809C448.375 257.577 448.075 257.461 447.725 257.461C447.199 257.461 446.789 257.72 446.493 258.239C446.197 258.755 446.049 259.485 446.049 260.43C446.049 261.06 446.115 261.595 446.248 262.035C446.38 262.475 446.571 262.81 446.819 263.04C447.07 263.27 447.372 263.384 447.725 263.384ZM454.16 256.793V264.066H453.279V257.717H453.236L451.461 258.896V258.001L453.279 256.793H454.16ZM458.524 264.166C458.107 264.166 457.732 264.083 457.398 263.917C457.064 263.751 456.797 263.524 456.596 263.235C456.394 262.946 456.284 262.617 456.265 262.248H457.118C457.151 262.577 457.3 262.849 457.565 263.065C457.833 263.278 458.152 263.384 458.524 263.384C458.822 263.384 459.087 263.315 459.319 263.175C459.554 263.035 459.737 262.843 459.87 262.6C460.005 262.353 460.072 262.075 460.072 261.765C460.072 261.448 460.002 261.165 459.863 260.916C459.725 260.665 459.536 260.468 459.295 260.323C459.053 260.179 458.777 260.106 458.467 260.103C458.245 260.101 458.016 260.135 457.782 260.206C457.547 260.275 457.354 260.364 457.203 260.472L456.379 260.373L456.819 256.793H460.598V257.575H457.558L457.302 259.72H457.345C457.494 259.601 457.681 259.503 457.906 259.425C458.131 259.347 458.365 259.308 458.609 259.308C459.054 259.308 459.451 259.414 459.799 259.627C460.149 259.838 460.424 260.127 460.623 260.494C460.824 260.861 460.924 261.28 460.924 261.751C460.924 262.215 460.82 262.629 460.612 262.994C460.406 263.356 460.122 263.642 459.76 263.853C459.397 264.061 458.986 264.166 458.524 264.166Z" fill="#222222"/>
<path d="M596.1 267.066V266.235L599.221 262.819C599.587 262.419 599.889 262.071 600.126 261.776C600.363 261.477 600.538 261.197 600.652 260.936C600.769 260.671 600.828 260.394 600.828 260.105C600.828 259.772 600.748 259.484 600.588 259.241C600.431 258.998 600.215 258.81 599.941 258.678C599.667 258.546 599.36 258.48 599.018 258.48C598.655 258.48 598.338 258.555 598.067 258.706C597.799 258.854 597.591 259.061 597.444 259.329C597.299 259.597 597.227 259.911 597.227 260.271H596.137C596.137 259.717 596.265 259.231 596.52 258.812C596.776 258.393 597.124 258.067 597.564 257.833C598.007 257.599 598.504 257.482 599.055 257.482C599.609 257.482 600.1 257.599 600.528 257.833C600.955 258.067 601.291 258.383 601.534 258.78C601.777 259.177 601.899 259.618 601.899 260.105C601.899 260.452 601.836 260.792 601.709 261.125C601.586 261.454 601.371 261.822 601.063 262.228C600.758 262.631 600.335 263.124 599.794 263.705L597.67 265.977V266.051H602.065V267.066H596.1ZM607.055 267.195C606.36 267.195 605.767 267.006 605.278 266.628C604.789 266.246 604.415 265.694 604.156 264.97C603.898 264.244 603.768 263.367 603.768 262.339C603.768 261.317 603.898 260.445 604.156 259.721C604.418 258.995 604.793 258.441 605.282 258.059C605.775 257.675 606.366 257.482 607.055 257.482C607.745 257.482 608.334 257.675 608.823 258.059C609.316 258.441 609.691 258.995 609.95 259.721C610.211 260.445 610.342 261.317 610.342 262.339C610.342 263.367 610.213 264.244 609.954 264.97C609.696 265.694 609.322 266.246 608.833 266.628C608.343 267.006 607.751 267.195 607.055 267.195ZM607.055 266.18C607.745 266.18 608.28 265.847 608.662 265.183C609.043 264.518 609.234 263.57 609.234 262.339C609.234 261.52 609.146 260.823 608.971 260.248C608.799 259.672 608.549 259.234 608.223 258.932C607.9 258.63 607.511 258.48 607.055 258.48C606.372 258.48 605.838 258.817 605.453 259.491C605.069 260.162 604.876 261.111 604.876 262.339C604.876 263.158 604.962 263.853 605.135 264.426C605.307 264.998 605.555 265.434 605.878 265.732C606.204 266.031 606.597 266.18 607.055 266.18ZM615.42 257.612V267.066H614.275V258.812H614.22L611.912 260.345V259.181L614.275 257.612H615.42ZM621.279 267.195C620.891 267.189 620.503 267.115 620.115 266.974C619.727 266.832 619.374 266.594 619.053 266.258C618.733 265.92 618.476 265.463 618.282 264.887C618.089 264.309 617.992 263.582 617.992 262.708C617.992 261.871 618.07 261.129 618.227 260.483C618.384 259.834 618.612 259.287 618.91 258.844C619.209 258.398 619.569 258.059 619.991 257.829C620.415 257.598 620.894 257.482 621.426 257.482C621.956 257.482 622.427 257.589 622.839 257.801C623.254 258.01 623.593 258.303 623.855 258.678C624.116 259.054 624.285 259.486 624.362 259.975H623.236C623.131 259.551 622.928 259.198 622.627 258.918C622.325 258.638 621.925 258.498 621.426 258.498C620.694 258.498 620.117 258.817 619.695 259.454C619.277 260.091 619.066 260.985 619.063 262.136H619.137C619.309 261.874 619.514 261.651 619.751 261.466C619.991 261.279 620.255 261.134 620.545 261.032C620.834 260.931 621.14 260.88 621.463 260.88C622.005 260.88 622.5 261.016 622.95 261.286C623.399 261.554 623.759 261.925 624.03 262.399C624.301 262.87 624.436 263.41 624.436 264.019C624.436 264.604 624.305 265.14 624.044 265.626C623.782 266.109 623.414 266.494 622.941 266.78C622.47 267.063 621.916 267.202 621.279 267.195ZM621.279 266.18C621.666 266.18 622.014 266.083 622.322 265.889C622.633 265.695 622.877 265.435 623.056 265.109C623.238 264.783 623.328 264.419 623.328 264.019C623.328 263.628 623.241 263.273 623.065 262.953C622.893 262.63 622.654 262.373 622.35 262.182C622.048 261.991 621.703 261.896 621.316 261.896C621.023 261.896 620.751 261.954 620.498 262.071C620.246 262.185 620.024 262.342 619.834 262.542C619.646 262.742 619.498 262.971 619.39 263.23C619.283 263.485 619.229 263.755 619.229 264.038C619.229 264.413 619.317 264.764 619.492 265.09C619.671 265.417 619.914 265.68 620.221 265.88C620.532 266.08 620.885 266.18 621.279 266.18Z" fill="#222222"/>
<path d="M112.308 255.87C111.612 255.87 111.02 255.681 110.53 255.303C110.041 254.921 109.667 254.369 109.408 253.645C109.15 252.919 109.021 252.042 109.021 251.014C109.021 249.992 109.15 249.12 109.408 248.396C109.67 247.67 110.045 247.116 110.535 246.734C111.027 246.35 111.618 246.157 112.308 246.157C112.997 246.157 113.586 246.35 114.076 246.734C114.568 247.116 114.944 247.67 115.202 248.396C115.464 249.12 115.594 249.992 115.594 251.014C115.594 252.042 115.465 252.919 115.207 253.645C114.948 254.369 114.574 254.921 114.085 255.303C113.596 255.681 113.003 255.87 112.308 255.87ZM112.308 254.855C112.997 254.855 113.532 254.522 113.914 253.858C114.296 253.193 114.486 252.245 114.486 251.014C114.486 250.195 114.399 249.498 114.223 248.923C114.051 248.347 113.802 247.909 113.475 247.607C113.152 247.305 112.763 247.155 112.308 247.155C111.624 247.155 111.09 247.492 110.706 248.166C110.321 248.836 110.129 249.786 110.129 251.014C110.129 251.833 110.215 252.528 110.387 253.101C110.559 253.673 110.807 254.108 111.13 254.407C111.457 254.706 111.849 254.855 112.308 254.855Z" fill="#444444"/>
<path d="M93.2279 224.786V223.955L96.3486 220.539C96.7149 220.139 97.0165 219.791 97.2535 219.496C97.4904 219.197 97.6659 218.917 97.7797 218.656C97.8967 218.391 97.9552 218.114 97.9552 217.825C97.9552 217.492 97.8751 217.204 97.7151 216.961C97.5581 216.718 97.3427 216.53 97.0688 216.398C96.7949 216.266 96.4871 216.2 96.1455 216.2C95.7823 216.2 95.4653 216.275 95.1945 216.426C94.9268 216.573 94.719 216.781 94.5713 217.049C94.4266 217.317 94.3543 217.631 94.3543 217.991H93.2648C93.2648 217.437 93.3925 216.95 93.648 216.532C93.9034 216.113 94.2512 215.787 94.6913 215.553C95.1345 215.319 95.6315 215.202 96.1824 215.202C96.7364 215.202 97.2273 215.319 97.6551 215.553C98.0829 215.787 98.4183 216.103 98.6615 216.5C98.9046 216.897 99.0262 217.338 99.0262 217.825C99.0262 218.172 98.9631 218.512 98.8369 218.845C98.7138 219.174 98.4984 219.542 98.1906 219.948C97.8859 220.351 97.4627 220.844 96.9211 221.425L94.7975 223.697V223.771H99.1924V224.786H93.2279ZM104.183 224.915C103.487 224.915 102.895 224.726 102.405 224.348C101.916 223.966 101.542 223.414 101.284 222.69C101.025 221.964 100.896 221.087 100.896 220.059C100.896 219.037 101.025 218.165 101.284 217.441C101.545 216.715 101.921 216.161 102.41 215.779C102.902 215.395 103.493 215.202 104.183 215.202C104.872 215.202 105.462 215.395 105.951 215.779C106.443 216.161 106.819 216.715 107.077 217.441C107.339 218.165 107.47 219.037 107.47 220.059C107.47 221.087 107.34 221.964 107.082 222.69C106.823 223.414 106.449 223.966 105.96 224.348C105.471 224.726 104.878 224.915 104.183 224.915ZM104.183 223.9C104.872 223.9 105.408 223.567 105.789 222.903C106.171 222.238 106.362 221.29 106.362 220.059C106.362 219.24 106.274 218.543 106.099 217.968C105.926 217.392 105.677 216.954 105.351 216.652C105.028 216.35 104.638 216.2 104.183 216.2C103.5 216.2 102.966 216.537 102.581 217.211C102.196 217.881 102.004 218.831 102.004 220.059C102.004 220.878 102.09 221.573 102.262 222.146C102.435 222.718 102.682 223.153 103.006 223.452C103.332 223.751 103.724 223.9 104.183 223.9ZM112.308 224.915C111.612 224.915 111.02 224.726 110.53 224.348C110.041 223.966 109.667 223.414 109.409 222.69C109.15 221.964 109.021 221.087 109.021 220.059C109.021 219.037 109.15 218.165 109.409 217.441C109.67 216.715 110.046 216.161 110.535 215.779C111.027 215.395 111.618 215.202 112.308 215.202C112.997 215.202 113.587 215.395 114.076 215.779C114.568 216.161 114.944 216.715 115.202 217.441C115.464 218.165 115.595 219.037 115.595 220.059C115.595 221.087 115.465 221.964 115.207 222.69C114.948 223.414 114.574 223.966 114.085 224.348C113.596 224.726 113.003 224.915 112.308 224.915ZM112.308 223.9C112.997 223.9 113.533 223.567 113.914 222.903C114.296 222.238 114.487 221.29 114.487 220.059C114.487 219.24 114.399 218.543 114.224 217.968C114.051 217.392 113.802 216.954 113.476 216.652C113.153 216.35 112.763 216.2 112.308 216.2C111.625 216.2 111.091 216.537 110.706 217.211C110.321 217.881 110.129 218.831 110.129 220.059C110.129 220.878 110.215 221.573 110.387 222.146C110.56 222.718 110.807 223.153 111.131 223.452C111.457 223.751 111.849 223.9 112.308 223.9Z" fill="#444444"/>
<path d="M92.5366 191.892V190.951L96.6914 184.377H97.3746V185.835H96.913L93.7738 190.803V190.877H99.369V191.892H92.5366ZM96.9869 193.831V191.606V191.167V184.377H98.0763V193.831H96.9869ZM104.183 193.96C103.487 193.96 102.895 193.771 102.405 193.393C101.916 193.011 101.542 192.459 101.284 191.735C101.025 191.009 100.896 190.132 100.896 189.104C100.896 188.082 101.025 187.21 101.284 186.486C101.545 185.76 101.921 185.206 102.41 184.824C102.902 184.44 103.493 184.247 104.183 184.247C104.872 184.247 105.462 184.44 105.951 184.824C106.443 185.206 106.819 185.76 107.077 186.486C107.339 187.21 107.47 188.082 107.47 189.104C107.47 190.132 107.34 191.009 107.082 191.735C106.823 192.459 106.449 193.011 105.96 193.393C105.471 193.771 104.878 193.96 104.183 193.96ZM104.183 192.945C104.872 192.945 105.408 192.612 105.789 191.948C106.171 191.283 106.362 190.335 106.362 189.104C106.362 188.285 106.274 187.588 106.099 187.013C105.926 186.437 105.677 185.999 105.351 185.697C105.028 185.395 104.638 185.245 104.183 185.245C103.5 185.245 102.966 185.582 102.581 186.256C102.196 186.926 102.004 187.876 102.004 189.104C102.004 189.923 102.09 190.618 102.262 191.191C102.435 191.763 102.682 192.199 103.006 192.497C103.332 192.796 103.724 192.945 104.183 192.945ZM112.308 193.96C111.612 193.96 111.02 193.771 110.53 193.393C110.041 193.011 109.667 192.459 109.409 191.735C109.15 191.009 109.021 190.132 109.021 189.104C109.021 188.082 109.15 187.21 109.409 186.486C109.67 185.76 110.046 185.206 110.535 184.824C111.027 184.44 111.618 184.247 112.308 184.247C112.997 184.247 113.587 184.44 114.076 184.824C114.568 185.206 114.944 185.76 115.202 186.486C115.464 187.21 115.595 188.082 115.595 189.104C115.595 190.132 115.465 191.009 115.207 191.735C114.948 192.459 114.574 193.011 114.085 193.393C113.596 193.771 113.003 193.96 112.308 193.96ZM112.308 192.945C112.997 192.945 113.533 192.612 113.914 191.948C114.296 191.283 114.487 190.335 114.487 189.104C114.487 188.285 114.399 187.588 114.224 187.013C114.051 186.437 113.802 185.999 113.476 185.697C113.153 185.395 112.763 185.245 112.308 185.245C111.625 185.245 111.091 185.582 110.706 186.256C110.321 186.926 110.129 187.876 110.129 189.104C110.129 189.923 110.215 190.618 110.387 191.191C110.56 191.763 110.807 192.199 111.131 192.497C111.457 192.796 111.849 192.945 112.308 192.945Z" fill="#444444"/>
<path d="M96.1259 163.005C95.7381 162.999 95.3503 162.925 94.9625 162.784C94.5747 162.642 94.2208 162.404 93.9007 162.068C93.5807 161.73 93.3237 161.273 93.1298 160.697C92.9359 160.119 92.839 159.392 92.839 158.518C92.839 157.681 92.9174 156.939 93.0744 156.293C93.2314 155.644 93.4591 155.097 93.7576 154.654C94.0562 154.208 94.4162 153.869 94.8379 153.639C95.2626 153.408 95.7412 153.292 96.2736 153.292C96.803 153.292 97.2738 153.399 97.6863 153.611C98.1017 153.82 98.4403 154.113 98.7019 154.488C98.9635 154.864 99.1327 155.296 99.2097 155.785H98.0833C97.9786 155.361 97.7755 155.008 97.4739 154.728C97.1723 154.448 96.7722 154.308 96.2736 154.308C95.5411 154.308 94.9641 154.627 94.5424 155.264C94.1239 155.901 93.9131 156.795 93.91 157.946H93.9838C94.1562 157.684 94.3609 157.461 94.5978 157.276C94.8379 157.089 95.1026 156.944 95.3919 156.842C95.6812 156.741 95.9874 156.69 96.3105 156.69C96.8522 156.69 97.3477 156.826 97.797 157.096C98.2464 157.364 98.6065 157.735 98.8773 158.209C99.1481 158.68 99.2836 159.22 99.2836 159.829C99.2836 160.414 99.1528 160.95 98.8912 161.436C98.6296 161.919 98.2618 162.304 97.7878 162.59C97.3169 162.873 96.763 163.012 96.1259 163.005ZM96.1259 161.99C96.5137 161.99 96.8614 161.893 97.1692 161.699C97.4801 161.505 97.7247 161.245 97.9032 160.919C98.0848 160.593 98.1756 160.229 98.1756 159.829C98.1756 159.438 98.0879 159.083 97.9125 158.763C97.7401 158.44 97.5016 158.183 97.1969 157.992C96.8953 157.801 96.5506 157.706 96.1628 157.706C95.8704 157.706 95.5981 157.764 95.3457 157.881C95.0933 157.995 94.8717 158.152 94.6809 158.352C94.4932 158.552 94.3455 158.781 94.2377 159.04C94.13 159.295 94.0762 159.565 94.0762 159.848C94.0762 160.223 94.1639 160.574 94.3393 160.9C94.5178 161.227 94.7609 161.49 95.0687 161.69C95.3796 161.89 95.7319 161.99 96.1259 161.99ZM104.183 163.005C103.487 163.005 102.895 162.816 102.405 162.438C101.916 162.056 101.542 161.504 101.284 160.78C101.025 160.054 100.896 159.177 100.896 158.149C100.896 157.127 101.025 156.255 101.284 155.531C101.545 154.805 101.921 154.251 102.41 153.869C102.902 153.485 103.493 153.292 104.183 153.292C104.872 153.292 105.462 153.485 105.951 153.869C106.443 154.251 106.819 154.805 107.077 155.531C107.339 156.255 107.47 157.127 107.47 158.149C107.47 159.177 107.34 160.054 107.082 160.78C106.823 161.504 106.449 162.056 105.96 162.438C105.471 162.816 104.878 163.005 104.183 163.005ZM104.183 161.99C104.872 161.99 105.408 161.657 105.789 160.993C106.171 160.328 106.362 159.38 106.362 158.149C106.362 157.33 106.274 156.633 106.099 156.058C105.926 155.482 105.677 155.044 105.351 154.742C105.028 154.44 104.638 154.29 104.183 154.29C103.5 154.29 102.966 154.627 102.581 155.301C102.196 155.971 102.004 156.921 102.004 158.149C102.004 158.968 102.09 159.663 102.262 160.236C102.435 160.808 102.682 161.243 103.006 161.542C103.332 161.841 103.724 161.99 104.183 161.99ZM112.308 163.005C111.612 163.005 111.02 162.816 110.53 162.438C110.041 162.056 109.667 161.504 109.409 160.78C109.15 160.054 109.021 159.177 109.021 158.149C109.021 157.127 109.15 156.255 109.409 155.531C109.67 154.805 110.046 154.251 110.535 153.869C111.027 153.485 111.618 153.292 112.308 153.292C112.997 153.292 113.587 153.485 114.076 153.869C114.568 154.251 114.944 154.805 115.202 155.531C115.464 156.255 115.595 157.127 115.595 158.149C115.595 159.177 115.465 160.054 115.207 160.78C114.948 161.504 114.574 162.056 114.085 162.438C113.596 162.816 113.003 163.005 112.308 163.005ZM112.308 161.99C112.997 161.99 113.533 161.657 113.914 160.993C114.296 160.328 114.487 159.38 114.487 158.149C114.487 157.33 114.399 156.633 114.224 156.058C114.051 155.482 113.802 155.044 113.476 154.742C113.153 154.44 112.763 154.29 112.308 154.29C111.625 154.29 111.091 154.627 110.706 155.301C110.321 155.971 110.129 156.921 110.129 158.149C110.129 158.968 110.215 159.663 110.387 160.236C110.56 160.808 110.807 161.243 111.131 161.542C111.457 161.841 111.849 161.99 112.308 161.99Z" fill="#444444"/>
<path d="M96.1167 132.05C95.4827 132.05 94.9225 131.938 94.4363 131.713C93.9531 131.486 93.576 131.173 93.3052 130.776C93.0344 130.376 92.9005 129.921 92.9036 129.41C92.9005 129.01 92.979 128.64 93.139 128.302C93.2991 127.96 93.5176 127.676 93.7946 127.448C94.0746 127.217 94.387 127.071 94.7317 127.009V126.954C94.2793 126.837 93.9192 126.583 93.6515 126.192C93.3837 125.798 93.2514 125.35 93.2544 124.849C93.2514 124.369 93.3729 123.939 93.6191 123.561C93.8653 123.182 94.2039 122.884 94.6348 122.665C95.0687 122.447 95.5627 122.337 96.1167 122.337C96.6645 122.337 97.1538 122.447 97.5847 122.665C98.0156 122.884 98.3541 123.182 98.6003 123.561C98.8496 123.939 98.9758 124.369 98.9789 124.849C98.9758 125.35 98.8388 125.798 98.568 126.192C98.3002 126.583 97.9448 126.837 97.5016 126.954V127.009C97.8432 127.071 98.151 127.217 98.4249 127.448C98.6988 127.676 98.9173 127.96 99.0804 128.302C99.2435 128.64 99.3266 129.01 99.3297 129.41C99.3266 129.921 99.1881 130.376 98.9142 130.776C98.6434 131.173 98.2664 131.486 97.7832 131.713C97.3031 131.938 96.7476 132.05 96.1167 132.05ZM96.1167 131.035C96.5444 131.035 96.9138 130.966 97.2246 130.827C97.5354 130.689 97.7755 130.493 97.9448 130.241C98.114 129.988 98.2002 129.693 98.2033 129.354C98.2002 128.997 98.1079 128.682 97.9263 128.408C97.7447 128.134 97.497 127.919 97.1831 127.762C96.8722 127.605 96.5167 127.526 96.1167 127.526C95.7135 127.526 95.3534 127.605 95.0364 127.762C94.7225 127.919 94.4747 128.134 94.2931 128.408C94.1146 128.682 94.0269 128.997 94.03 129.354C94.0269 129.693 94.1085 129.988 94.2747 130.241C94.4439 130.493 94.6855 130.689 94.9995 130.827C95.3134 130.966 95.6858 131.035 96.1167 131.035ZM96.1167 126.548C96.4552 126.548 96.7553 126.48 97.0169 126.344C97.2815 126.209 97.4893 126.02 97.6401 125.777C97.7909 125.534 97.8678 125.249 97.8709 124.923C97.8678 124.603 97.7924 124.324 97.6447 124.087C97.497 123.847 97.2923 123.662 97.0307 123.533C96.7691 123.401 96.4644 123.335 96.1167 123.335C95.7627 123.335 95.4534 123.401 95.1887 123.533C94.9241 123.662 94.7194 123.847 94.5747 124.087C94.4301 124.324 94.3593 124.603 94.3624 124.923C94.3593 125.249 94.4316 125.534 94.5794 125.777C94.7302 126.02 94.9379 126.209 95.2026 126.344C95.4673 126.48 95.772 126.548 96.1167 126.548ZM104.183 132.05C103.487 132.05 102.895 131.861 102.405 131.483C101.916 131.101 101.542 130.549 101.284 129.825C101.025 129.099 100.896 128.222 100.896 127.194C100.896 126.172 101.025 125.3 101.284 124.576C101.545 123.85 101.921 123.296 102.41 122.914C102.902 122.53 103.493 122.337 104.183 122.337C104.872 122.337 105.462 122.53 105.951 122.914C106.443 123.296 106.819 123.85 107.077 124.576C107.339 125.3 107.47 126.172 107.47 127.194C107.47 128.222 107.34 129.099 107.082 129.825C106.823 130.549 106.449 131.101 105.96 131.483C105.471 131.861 104.878 132.05 104.183 132.05ZM104.183 131.035C104.872 131.035 105.408 130.702 105.789 130.038C106.171 129.373 106.362 128.425 106.362 127.194C106.362 126.375 106.274 125.678 106.099 125.103C105.926 124.527 105.677 124.089 105.351 123.787C105.028 123.485 104.638 123.335 104.183 123.335C103.5 123.335 102.966 123.672 102.581 124.346C102.196 125.016 102.004 125.966 102.004 127.194C102.004 128.013 102.09 128.708 102.262 129.281C102.435 129.853 102.682 130.289 103.006 130.587C103.332 130.886 103.724 131.035 104.183 131.035ZM112.308 132.05C111.612 132.05 111.02 131.861 110.53 131.483C110.041 131.101 109.667 130.549 109.409 129.825C109.15 129.099 109.021 128.222 109.021 127.194C109.021 126.172 109.15 125.3 109.409 124.576C109.67 123.85 110.046 123.296 110.535 122.914C111.027 122.53 111.618 122.337 112.308 122.337C112.997 122.337 113.587 122.53 114.076 122.914C114.568 123.296 114.944 123.85 115.202 124.576C115.464 125.3 115.595 126.172 115.595 127.194C115.595 128.222 115.465 129.099 115.207 129.825C114.948 130.549 114.574 131.101 114.085 131.483C113.596 131.861 113.003 132.05 112.308 132.05ZM112.308 131.035C112.997 131.035 113.533 130.702 113.914 130.038C114.296 129.373 114.487 128.425 114.487 127.194C114.487 126.375 114.399 125.678 114.224 125.103C114.051 124.527 113.802 124.089 113.476 123.787C113.153 123.485 112.763 123.335 112.308 123.335C111.625 123.335 111.091 123.672 110.706 124.346C110.321 125.016 110.129 125.966 110.129 127.194C110.129 128.013 110.215 128.708 110.387 129.281C110.56 129.853 110.807 130.289 111.131 130.587C111.457 130.886 111.849 131.035 112.308 131.035Z" fill="#444444"/>
<path d="M87.4999 91.5116V100.966H86.355V92.7119H86.2996L83.9914 94.2446V93.0812L86.355 91.5116H87.4999ZM91.3039 99.6736L91.23 100.172C91.1777 100.523 91.0977 100.898 90.9899 101.299C90.8853 101.699 90.776 102.076 90.6622 102.43C90.5483 102.784 90.4544 103.065 90.3806 103.274H89.5496C89.5896 103.077 89.6419 102.817 89.7066 102.494C89.7712 102.171 89.8358 101.809 89.9005 101.409C89.9682 101.012 90.0236 100.606 90.0666 100.191L90.122 99.6736H91.3039ZM96.0577 101.095C95.3621 101.095 94.7697 100.906 94.2803 100.528C93.791 100.146 93.4171 99.5936 93.1585 98.8703C92.9 98.144 92.7708 97.2668 92.7708 96.2389C92.7708 95.2171 92.9 94.3446 93.1585 93.6214C93.4201 92.895 93.7956 92.3411 94.285 91.9594C94.7774 91.5747 95.3683 91.3824 96.0577 91.3824C96.7471 91.3824 97.3364 91.5747 97.8258 91.9594C98.3182 92.3411 98.6937 92.895 98.9522 93.6214C99.2138 94.3446 99.3446 95.2171 99.3446 96.2389C99.3446 97.2668 99.2154 98.144 98.9568 98.8703C98.6983 99.5936 98.3244 100.146 97.835 100.528C97.3457 100.906 96.7532 101.095 96.0577 101.095ZM96.0577 100.08C96.7471 100.08 97.2826 99.7474 97.6642 99.0827C98.0458 98.4179 98.2367 97.47 98.2367 96.2389C98.2367 95.4203 98.1489 94.7232 97.9735 94.1476C97.8012 93.5721 97.5519 93.1336 97.2257 92.832C96.9025 92.5303 96.5132 92.3795 96.0577 92.3795C95.3744 92.3795 94.8405 92.7165 94.4558 93.3905C94.0711 94.0615 93.8787 95.0109 93.8787 96.2389C93.8787 97.0576 93.9649 97.7531 94.1372 98.3256C94.3096 98.898 94.5573 99.3335 94.8805 99.632C95.2067 99.9306 95.5991 100.08 96.0577 100.08ZM104.183 101.095C103.487 101.095 102.895 100.906 102.405 100.528C101.916 100.146 101.542 99.5936 101.284 98.8703C101.025 98.144 100.896 97.2668 100.896 96.2389C100.896 95.2171 101.025 94.3446 101.284 93.6214C101.545 92.895 101.921 92.3411 102.41 91.9594C102.902 91.5747 103.493 91.3824 104.183 91.3824C104.872 91.3824 105.461 91.5747 105.951 91.9594C106.443 92.3411 106.819 92.895 107.077 93.6214C107.339 94.3446 107.47 95.2171 107.47 96.2389C107.47 97.2668 107.34 98.144 107.082 98.8703C106.823 99.5936 106.449 100.146 105.96 100.528C105.471 100.906 104.878 101.095 104.183 101.095ZM104.183 100.08C104.872 100.08 105.408 99.7474 105.789 99.0827C106.171 98.4179 106.362 97.47 106.362 96.2389C106.362 95.4203 106.274 94.7232 106.099 94.1476C105.926 93.5721 105.677 93.1336 105.351 92.832C105.027 92.5303 104.638 92.3795 104.183 92.3795C103.499 92.3795 102.965 92.7165 102.581 93.3905C102.196 94.0615 102.004 95.0109 102.004 96.2389C102.004 97.0576 102.09 97.7531 102.262 98.3256C102.435 98.898 102.682 99.3335 103.005 99.632C103.332 99.9306 103.724 100.08 104.183 100.08ZM112.308 101.095C111.612 101.095 111.02 100.906 110.53 100.528C110.041 100.146 109.667 99.5936 109.409 98.8703C109.15 98.144 109.021 97.2668 109.021 96.2389C109.021 95.2171 109.15 94.3446 109.409 93.6214C109.67 92.895 110.046 92.3411 110.535 91.9594C111.027 91.5747 111.618 91.3824 112.308 91.3824C112.997 91.3824 113.586 91.5747 114.076 91.9594C114.568 92.3411 114.944 92.895 115.202 93.6214C115.464 94.3446 115.595 95.2171 115.595 96.2389C115.595 97.2668 115.465 98.144 115.207 98.8703C114.948 99.5936 114.574 100.146 114.085 100.528C113.596 100.906 113.003 101.095 112.308 101.095ZM112.308 100.08C112.997 100.08 113.533 99.7474 113.914 99.0827C114.296 98.4179 114.487 97.47 114.487 96.2389C114.487 95.4203 114.399 94.7232 114.224 94.1476C114.051 93.5721 113.802 93.1336 113.476 92.832C113.152 92.5303 112.763 92.3795 112.308 92.3795C111.624 92.3795 111.09 92.7165 110.706 93.3905C110.321 94.0615 110.129 95.0109 110.129 96.2389C110.129 97.0576 110.215 97.7531 110.387 98.3256C110.56 98.898 110.807 99.3335 111.13 99.632C111.457 99.9306 111.849 100.08 112.308 100.08Z" fill="#444444"/>
<path d="M87.4237 60.5567V70.0112H86.2788V61.7569H86.2234L83.9152 63.2896V62.1263L86.2788 60.5567H87.4237ZM91.2277 68.7186L91.1538 69.2172C91.1015 69.568 91.0215 69.9435 90.9138 70.3436C90.8091 70.7437 90.6999 71.1207 90.586 71.4746C90.4721 71.8286 90.3783 72.1102 90.3044 72.3194H89.4734C89.5134 72.1225 89.5658 71.8624 89.6304 71.5393C89.695 71.2161 89.7597 70.8545 89.8243 70.4544C89.892 70.0574 89.9474 69.6511 89.9905 69.2356L90.0459 68.7186H91.2277ZM93.2278 70.0112V69.1802L96.3485 65.764C96.7148 65.3639 97.0164 65.0162 97.2533 64.7207C97.4903 64.4222 97.6658 64.1421 97.7796 63.8805C97.8966 63.6158 97.9551 63.3389 97.9551 63.0496C97.9551 62.7172 97.875 62.4294 97.715 62.1863C97.558 61.9431 97.3426 61.7554 97.0687 61.6231C96.7948 61.4907 96.487 61.4246 96.1454 61.4246C95.7822 61.4246 95.4652 61.5 95.1944 61.6508C94.9266 61.7985 94.7189 62.0062 94.5712 62.274C94.4265 62.5417 94.3542 62.8557 94.3542 63.2157H93.2647C93.2647 62.6618 93.3924 62.1755 93.6479 61.7569C93.9033 61.3384 94.2511 61.0121 94.6912 60.7782C95.1344 60.5443 95.6314 60.4274 96.1823 60.4274C96.7363 60.4274 97.2272 60.5443 97.655 60.7782C98.0828 61.0121 98.4182 61.3276 98.6614 61.7246C98.9045 62.1216 99.0261 62.5633 99.0261 63.0496C99.0261 63.3973 98.963 63.7374 98.8368 64.0698C98.7137 64.3991 98.4983 64.7669 98.1905 65.1731C97.8858 65.5763 97.4626 66.0687 96.921 66.6504L94.7974 68.9217V68.9956H99.1923V70.0112H93.2278ZM104.183 70.1405C103.487 70.1405 102.895 69.9512 102.405 69.5726C101.916 69.191 101.542 68.6386 101.284 67.9153C101.025 67.189 100.896 66.3119 100.896 65.2839C100.896 64.2621 101.025 63.3896 101.284 62.6664C101.545 61.9401 101.921 61.3861 102.41 61.0045C102.902 60.6197 103.493 60.4274 104.183 60.4274C104.872 60.4274 105.461 60.6197 105.951 61.0045C106.443 61.3861 106.819 61.9401 107.077 62.6664C107.339 63.3896 107.47 64.2621 107.47 65.2839C107.47 66.3119 107.34 67.189 107.082 67.9153C106.823 68.6386 106.449 69.191 105.96 69.5726C105.471 69.9512 104.878 70.1405 104.183 70.1405ZM104.183 69.1248C104.872 69.1248 105.408 68.7924 105.789 68.1277C106.171 67.4629 106.362 66.515 106.362 65.2839C106.362 64.4653 106.274 63.7682 106.099 63.1927C105.926 62.6171 105.677 62.1786 105.351 61.877C105.027 61.5754 104.638 61.4246 104.183 61.4246C103.499 61.4246 102.965 61.7616 102.581 62.4356C102.196 63.1065 102.004 64.0559 102.004 65.2839C102.004 66.1026 102.09 66.7981 102.262 67.3706C102.435 67.943 102.682 68.3785 103.005 68.677C103.332 68.9756 103.724 69.1248 104.183 69.1248ZM112.308 70.1405C111.612 70.1405 111.02 69.9512 110.53 69.5726C110.041 69.191 109.667 68.6386 109.409 67.9153C109.15 67.189 109.021 66.3119 109.021 65.2839C109.021 64.2621 109.15 63.3896 109.409 62.6664C109.67 61.9401 110.046 61.3861 110.535 61.0045C111.027 60.6197 111.618 60.4274 112.308 60.4274C112.997 60.4274 113.586 60.6197 114.076 61.0045C114.568 61.3861 114.944 61.9401 115.202 62.6664C115.464 63.3896 115.595 64.2621 115.595 65.2839C115.595 66.3119 115.465 67.189 115.207 67.9153C114.948 68.6386 114.574 69.191 114.085 69.5726C113.596 69.9512 113.003 70.1405 112.308 70.1405ZM112.308 69.1248C112.997 69.1248 113.533 68.7924 113.914 68.1277C114.296 67.4629 114.487 66.515 114.487 65.2839C114.487 64.4653 114.399 63.7682 114.224 63.1927C114.051 62.6171 113.802 62.1786 113.476 61.877C113.152 61.5754 112.763 61.4246 112.308 61.4246C111.624 61.4246 111.09 61.7616 110.706 62.4356C110.321 63.1065 110.129 64.0559 110.129 65.2839C110.129 66.1026 110.215 66.7981 110.387 67.3706C110.56 67.943 110.807 68.3785 111.13 68.677C111.457 68.9756 111.849 69.1248 112.308 69.1248Z" fill="#444444"/>
</g>
<defs>
<clipPath id="clip0_120_370">
<rect width="739" height="302" fill="white"/>
</clipPath>
</defs>
</svg>
