<svg width="14" height="14" viewBox="0 0 14 14" fill="black" xmlns="http://www.w3.org/2000/svg">
<path fill-rule="evenodd" clip-rule="evenodd" d="M11.9 1.4H2.1C1.7134 1.4 1.4 1.7134 1.4 2.1V11.9C1.4 12.2866 1.7134 12.6 2.1 12.6H11.9C12.2866 12.6 12.6 12.2866 12.6 11.9V2.1C12.6 1.7134 12.2866 1.4 11.9 1.4ZM2.1 0C0.940205 0 0 0.940205 0 2.1V11.9C0 13.0598 0.940205 14 2.1 14H11.9C13.0598 14 14 13.0598 14 11.9V2.1C14 0.940205 13.0598 0 11.9 0H2.1Z" fill="black"/>
<path d="M6.30005 3.5H7.70005V10.5H6.30005V3.5Z" fill="black"/>
<path d="M9.10596 7.72025H10.506V10.5202H9.10596V7.72025Z" fill="black"/>
<path d="M3.5 5.6H4.9V10.5H3.5V5.6Z" fill="black"/>
</svg>
